<?xml version="1.0" encoding="utf-8"?>
<!-- Generator: Adobe Illustrator 20.1.0, SVG Export Plug-In . SVG Version: 6.00 Build 0)  -->
<svg version="1.1" id="Ebene_1" xmlns="http://www.w3.org/2000/svg" xmlns:xlink="http://www.w3.org/1999/xlink" x="0px" y="0px"
	 viewBox="0 0 29 29" style="enable-background:new 0 0 29 29;" xml:space="preserve">
<style type="text/css">
	.st0{fill:#FFFFFF;}
	.st1{fill:#5B6163;}
	.st2{fill:#2E82A0;}
</style>
<rect class="st0" width="29" height="29"/>
<g>
	<g id="Page-1_1_">
		<g id="logo_1_">
			<path id="Fill-1_1_" class="st1" d="M19.9,7.8h1.6c0.4,0,0.8,0.4,0.8,0.8v1.6c0,0.4-0.4,0.8-0.8,0.8h-1.6c-0.4,0-0.8-0.4-0.8-0.8
				V8.6C19.1,8.2,19.5,7.8,19.9,7.8"/>
			<path id="Fill-2_1_" class="st1" d="M19.9,18.5h1.6c0.4,0,0.8,0.4,0.8,0.8v1.6c0,0.4-0.4,0.8-0.8,0.8h-1.6
				c-0.4,0-0.8-0.4-0.8-0.8v-1.6C19.1,18.8,19.5,18.5,19.9,18.5"/>
			<path id="Fill-3_1_" class="st2" d="M12.3,3.3h1.6c0.4,0,0.8,0.4,0.8,0.8v1.6c0,0.4-0.4,0.8-0.8,0.8h-1.6c-0.4,0-0.8-0.4-0.8-0.8
				V4C11.5,3.6,11.9,3.3,12.3,3.3z M16.1,9.4h1.6c0.4,0,0.8,0.4,0.8,0.8v1.6c0,0.4-0.4,0.8-0.8,0.8h-1.6c-0.4,0-0.8-0.4-0.8-0.8
				v-1.6C15.3,9.7,15.7,9.4,16.1,9.4z M8.5,22.2h1.6c0.4,0,0.8,0.4,0.8,0.8v1.6c0,0.4-0.4,0.8-0.8,0.8H8.5c-0.4,0-0.8-0.4-0.8-0.8
				V23C7.7,22.6,8.1,22.2,8.5,22.2z M7,14.7h1.6c0.4,0,0.8,0.4,0.8,0.8v1.6c0,0.4-0.4,0.8-0.8,0.8H7c-0.4,0-0.8-0.4-0.8-0.8v-1.6
				C6.2,15,6.6,14.7,7,14.7z M21.4,14.7H23c0.4,0,0.8,0.4,0.8,0.8v1.6c0,0.4-0.4,0.8-0.8,0.8h-1.6c-0.4,0-0.8-0.4-0.8-0.8v-1.6
				C20.7,15,21,14.7,21.4,14.7z M16.1,18.5h1.6c0.4,0,0.8,0.4,0.8,0.8v1.6c0,0.4-0.4,0.8-0.8,0.8h-1.6c-0.4,0-0.8-0.4-0.8-0.8v-1.6
				C15.3,18.8,15.7,18.5,16.1,18.5z M19.9,22.2h1.6c0.4,0,0.8,0.4,0.8,0.8v1.6c0,0.4-0.4,0.8-0.8,0.8h-1.6c-0.4,0-0.8-0.4-0.8-0.8
				V23C19.1,22.6,19.5,22.2,19.9,22.2L19.9,22.2z"/>
			<path id="Fill-4_1_" class="st1" d="M5.5,7.8h1.6c0.4,0,0.8,0.4,0.8,0.8v1.6c0,0.4-0.4,0.8-0.8,0.8H5.5c-0.4,0-0.8-0.4-0.8-0.8
				V8.6C4.7,8.2,5,7.8,5.5,7.8"/>
			<path id="Fill-5_1_" class="st1" d="M16.1,14.7h1.6c0.4,0,0.8,0.4,0.8,0.8v1.6c0,0.4-0.4,0.8-0.8,0.8h-1.6
				c-0.4,0-0.8-0.4-0.8-0.8v-1.6C15.3,15,15.7,14.7,16.1,14.7"/>
			<path id="Fill-6_1_" class="st1" d="M12.3,13.2h1.6c0.4,0,0.8,0.4,0.8,0.8v1.6c0,0.4-0.4,0.8-0.8,0.8h-1.6
				c-0.4,0-0.8-0.4-0.8-0.8v-1.6C11.5,13.5,11.9,13.2,12.3,13.2"/>
			<path id="Fill-7_1_" class="st1" d="M12.3,18.5h1.6c0.4,0,0.8,0.4,0.8,0.8v1.6c0,0.4-0.4,0.8-0.8,0.8h-1.6
				c-0.4,0-0.8-0.4-0.8-0.8v-1.6C11.5,18.8,11.9,18.5,12.3,18.5"/>
			<path id="Fill-8_1_" class="st1" d="M8.5,18.5h1.6c0.4,0,0.8,0.4,0.8,0.8v1.6c0,0.4-0.4,0.8-0.8,0.8H8.5c-0.4,0-0.8-0.4-0.8-0.8
				v-1.6C7.7,18.8,8.1,18.5,8.5,18.5"/>
			<path id="Fill-9_1_" class="st1" d="M16.1,22.2h1.6c0.4,0,0.8,0.4,0.8,0.8v1.6c0,0.4-0.4,0.8-0.8,0.8h-1.6
				c-0.4,0-0.8-0.4-0.8-0.8V23C15.3,22.6,15.7,22.2,16.1,22.2"/>
			<path id="Fill-10_1_" class="st1" d="M12.3,22.2h1.6c0.4,0,0.8,0.4,0.8,0.8v1.6c0,0.4-0.4,0.8-0.8,0.8h-1.6
				c-0.4,0-0.8-0.4-0.8-0.8V23C11.5,22.6,11.9,22.2,12.3,22.2"/>
		</g>
	</g>
</g>
</svg>
