<?xml version="1.0" encoding="UTF-8" standalone="no"?><svg width="152" height="92" viewBox="0 0 152 92" xmlns="http://www.w3.org/2000/svg" xmlns:xlink="http://www.w3.org/1999/xlink"><svg width="64" height="60" viewBox="0 0 64 60" id="badge" y="32"><defs><linearGradient x1="50%" y1="0%" x2="50%" y2="99.021%" id="ac"><stop stop-opacity="0" offset="0%"/><stop stop-opacity=".02" offset="80%"/><stop stop-opacity=".04" offset="100%"/></linearGradient><linearGradient x1="50%" y1="0%" x2="50%" y2="100%" id="ae"><stop stop-color="#FFF" stop-opacity=".12" offset="0%"/><stop stop-color="#FFF" stop-opacity=".06" offset="20%"/><stop stop-color="#FFF" stop-opacity="0" offset="100%"/></linearGradient><path d="M33 60.176c17.673 0 32-13.062 32-29.176C65 14.886 50.673 1.824 33 1.824 15.327 1.824 1 14.886 1 31c0 16.114 14.327 29.176 32 29.176z" id="aa"/><mask id="ad" x="0" y="0" width="64" height="58.353" fill="#fff"><use xlink:href="#aa"/></mask><mask id="af" x="0" y="0" width="64" height="58.353" fill="#fff"><use xlink:href="#aa"/></mask><path d="M33 56.47c18.225 0 33-11.416 33-25.5 0-14.083-14.775-25.5-33-25.5S0 16.888 0 30.97c0 14.084 14.775 25.5 33 25.5z" id="ab"/><mask id="ah" x="0" y="0" width="66" height="51" fill="#fff"><use xlink:href="#ab"/></mask></defs><g transform="translate(-1 -1)" fill="none" fill-rule="evenodd"><mask id="ag" fill="#fff"><use xlink:href="#aa"/></mask><g transform="rotate(-2 33 31)"><use stroke="url(#ac)" mask="url(#ad)" fill="#DA291C" xlink:href="#aa"/><use stroke="url(#ae)" mask="url(#af)" xlink:href="#aa"/></g><g mask="url(#ag)" transform="rotate(-2 33 30.97)" stroke-width="4" stroke="#FFF"><use mask="url(#ah)" xlink:href="#ab"/></g></g></svg><svg width="51" height="34" viewBox="0 0 51 34" id="bio-icon" x="101"><title>Page 1</title><g fill="none" fill-rule="evenodd"><path fill="#FEFEFE" d="M0 33.685h50.692V0H0z"/><path fill="#95C11F" d="M.47 33.218h49.753V.468H.469z"/><g transform="translate(8.28 6.287)" fill="#FEFEFE"><path d="M11.463 1.492c.541.042.808.07 1.338.134.172.021.336-.054.365-.17.093-.355.14-.534.23-.892.03-.117.116-.106.19.025.233.4.347.602.569 1.008.074.133.27.26.437.293.496.1.676.145 1.276.305.165.044.192.12.072.161-.369.127-.559.162-.94.317-.122.049-.167.2-.099.333.205.408.302.627.492 1.064.063.143.003.158-.133.039-.416-.366-.633-.502-1.07-.808-.146-.101-.364-.138-.488-.086-.373.162-.56.276-.938.445-.124.056-.199.009-.167-.104.097-.346.146-.55.241-.896.03-.112-.068-.28-.219-.37-.47-.279-.707-.413-1.189-.67-.156-.085-.142-.141.033-.128M6.19 5.337c.646-.134.845-.166 1.455-.253.183-.026.368-.135.412-.254.133-.37.195-.554.326-.92.042-.117.131-.123.198-.014.21.344.314.518.518.869.066.113.264.213.436.203.574-.034.707-.068 1.29-.096.167-.009.188.057.07.134-.447.289-.584.407-.98.645-.126.076-.19.218-.125.338.193.358.288.54.474.91.061.122-.005.155-.148.075a11.755 11.755 0 0 0-1.107-.562.627.627 0 0 0-.522.024c-.419.249-.559.339-1.12.69-.157.096-.233.081-.175-.068.182-.465.245-.578.395-.95.049-.12-.046-.264-.203-.313-.489-.149-.737-.212-1.245-.315-.165-.033-.142-.099.052-.143M3.403 10.214c.59-.048.873-.06 1.422-.06.178-.001.394-.098.483-.22l.683-.924c.088-.118.172-.113.19.01.05.384.075.578.116.968.014.126.16.24.32.262.554.078.643.092 1.203.196.151.028.155.095.01.144-.448.149-.676.232-1.147.412-.151.058-.288.214-.286.343.003.395.003.594-.002.997-.003.133-.082.163-.18.068a12.297 12.297 0 0 0-.766-.688c-.105-.085-.33-.097-.498-.025-.514.222-.775.34-1.302.587-.174.08-.235.045-.13-.083.31-.39.467-.582.772-.964.102-.125.087-.29-.03-.362a8.46 8.46 0 0 0-.967-.52c-.13-.061-.08-.125.11-.141M12.866 16.715c-.387.22-.599.364-1.01.653a.47.47 0 0 0-.182.446c.103.462.153.698.25 1.19.033.163-.037.215-.153.117-.353-.302-.53-.446-.885-.724-.118-.093-.326-.081-.463.026-.42.32-.63.487-1.054.828-.14.114-.2.067-.133-.1.2-.505.3-.75.493-1.23.065-.158.019-.352-.102-.433-.37-.247-.557-.366-.934-.59-.123-.073-.09-.149.07-.17.497-.062.743-.087 1.231-.126a.515.515 0 0 0 .397-.289c.187-.455.28-.677.457-1.104.058-.14.135-.14.173-.006.114.415.17.627.281 1.063.035.14.192.254.346.251.477-.01.715-.02 1.178.034.151.016.165.093.04.164M19.227 17.43c-.34.112-.51.172-.855.295-.113.04-.165.186-.115.324.15.418.228.627.387 1.046.053.138-.005.163-.129.054-.373-.33-.556-.498-.918-.837-.12-.112-.31-.166-.426-.117-.35.147-.527.224-.888.392-.12.056-.18-.002-.135-.128l.338-.923c.044-.119-.016-.306-.132-.42-.353-.35-.528-.526-.876-.877-.111-.114-.089-.172.05-.128.433.136.65.204 1.08.343.14.046.286-.009.328-.118.125-.342.187-.506.309-.832.039-.103.106-.08.15.055l.35 1.042a.591.591 0 0 0 .34.33c.433.142.649.212 1.084.352.14.046.166.111.058.147M24.935 15.749c-.38.145-.558.22-.926.364-.119.046-.165.191-.1.325.195.403.295.604.503 1.001.067.13.006.158-.136.057a9.542 9.542 0 0 1-1.053-.827c-.136-.12-.339-.192-.455-.155-.351.112-.526.166-.875.28-.116.038-.182-.025-.15-.138l.264-.848c.037-.112-.043-.3-.17-.424-.394-.384-.59-.58-.97-.967-.124-.127-.106-.18.041-.12.454.185.68.276 1.139.45.149.058.3.016.336-.091.11-.336.167-.502.282-.835.036-.108.11-.08.164.06.168.436.256.655.434 1.09.059.14.23.297.385.35.475.159.723.186 1.217.287.16.03.19.093.07.14M28.658 11.97c-.363.252-.541.369-.893.583-.112.07-.163.212-.112.317.158.319.238.476.4.785.056.103-.003.131-.125.065a10.898 10.898 0 0 1-.914-.54c-.119-.076-.302-.1-.41-.05-.326.147-.486.216-.804.351-.105.045-.162.002-.128-.095.102-.295.154-.442.26-.74.035-.097-.028-.248-.143-.336-.347-.273-.515-.434-.852-.727-.109-.095-.092-.144.041-.115.405.1.61.145 1.03.216.136.022.278-.051.315-.163l.298-.883c.04-.115.109-.11.153.013.14.382.215.572.36.95a.415.415 0 0 0 .343.239c.441.02.665.022 1.124-.003.148-.008.173.05.057.134M31.681 6.244a42.2 42.2 0 0 1-.872.89c-.112.11-.173.283-.135.384.117.305.177.455.303.747.04.095-.016.153-.127.126a6.553 6.553 0 0 1-.825-.247c-.105-.038-.281.014-.39.115-.334.306-.509.456-.818.728-.1.088-.152.062-.116-.055.111-.36.2-.555.335-.934.045-.126-.001-.268-.102-.316a9.559 9.559 0 0 1-.759-.41c-.096-.056-.074-.117.05-.137.385-.062.58-.1.976-.193a.518.518 0 0 0 .318-.296l.36-1.027c.044-.136.11-.156.143-.044.1.346.154.515.26.846.036.106.175.158.307.112.414-.143.624-.222 1.047-.398.138-.055.159-.007.045.11M25.109 2.472c.357.03.496.022.915.008a.325.325 0 0 0 .281-.236c.104-.395.158-.599.265-1.02.035-.137.097-.145.136-.019.124.393.186.58.31.949.041.118.173.192.297.192.334 0 .546-.01.964-.032.126-.006.154.044.046.129-.308.241-.466.324-.767.563a.35.35 0 0 0-.102.363c.126.337.189.502.317.825.043.107-.005.147-.107.093a17.32 17.32 0 0 1-.768-.432.336.336 0 0 0-.355.036 19.2 19.2 0 0 1-.705.567c-.091.07-.141.028-.112-.08.091-.322.137-.493.233-.847a.328.328 0 0 0-.124-.33c-.313-.223-.46-.349-.76-.6-.098-.081-.082-.14.036-.13M18.48 1.198c.421.12.63.18 1.046.302.137.038.277-.017.313-.123l.288-.853c.037-.111.109-.097.154.037.143.416.212.624.35 1.036a.54.54 0 0 0 .322.312c.418.121.625.179 1.041.297.136.038.155.106.045.153-.34.14-.506.205-.837.328-.107.04-.16.179-.119.31.127.397.188.593.311.982.04.128-.013.147-.118.039a73.505 73.505 0 0 0-.8-.81c-.107-.106-.28-.163-.383-.128-.314.106-.469.156-.777.251-.1.033-.157-.021-.123-.118.104-.292.158-.44.263-.745.035-.1-.027-.268-.137-.37-.344-.321-.52-.48-.875-.788-.116-.102-.1-.15.036-.112M34.957.95c-.306.277-.467.42-.794.72-.108.098-.167.247-.13.329.112.249.17.368.295.598.041.075-.014.128-.124.115a8.125 8.125 0 0 1-.808-.127c-.105-.02-.28.045-.394.149-.342.312-.515.47-.865.786-.114.102-.167.09-.117-.03.153-.36.23-.543.38-.905.051-.118.01-.24-.091-.273a8.187 8.187 0 0 1-.76-.267c-.096-.039-.07-.1.06-.139.399-.112.598-.173.997-.296a.586.586 0 0 0 .325-.292c.15-.372.227-.557.376-.929.05-.12.11-.135.138-.036.084.302.13.448.226.73.032.091.16.13.287.09.39-.129.583-.192.958-.313.122-.04.14 0 .041.09M21.438 7.558c.223-.06.255-.173-.01-.16-.452.023-5.73 1.234-10.306 3.894-4.978 2.895-6.483 4.337-7.546 5.158-.281.218-.49.221-.539.088-.17-.45-.276-.708-.415-1.131-.042-.129-.165-.114-.219.065-.186.613-.275.987-.457 1.54-.058.177-.119.372-.449.6-.653.454-.79.543-1.197.819-.148.1-.224.21.071.264l.723.132c.306.056.205.262.161.442-.124.513-.177.719-.343 1.246-.056.173.016.196.157.048.436-.453.577-.605 1.036-1.082.173-.18.335-.386.516-.353.45.08.503.094 1.132.213.279.052.277-.076.203-.259-.215-.531-.176-.461-.339-.911-.052-.144-.061-.412.102-.57 2.622-2.544 3.708-3.375 7.313-5.718 2.824-1.836 6.577-3.295 10.406-4.325"/></g></g></svg><svg width="8" height="8" viewBox="0 0 8 8" id="checkbox-mark" x="119" y="34"><title>Path 2</title><path d="M1 4.419L3.287 6.36 6.834 1" stroke-width="2" stroke="#5A6062" fill="none" fill-rule="evenodd"/></svg><svg width="18" height="15" viewBox="0 0 18 15" id="form-field-error" x="101" y="34"><title>Shape</title><path d="M.497 15h17l-8.5-15-8.5 15zm9.5-2h-2v-2h2v2zm0-3h-2V6h2v4z" fill="#DA291C" fill-rule="evenodd"/></svg><svg width="101" height="32" viewBox="0 0 101 32" id="logo"><title>logo</title><g fill="none" fill-rule="evenodd"><path d="M21.983 6.69h2.297a1.14 1.14 0 0 1 1.135 1.139v2.306a1.14 1.14 0 0 1-1.135 1.137h-2.297a1.14 1.14 0 0 1-1.134-1.137V7.829c0-.626.51-1.138 1.134-1.138M21.983 21.973h2.297a1.14 1.14 0 0 1 1.135 1.138v2.305a1.14 1.14 0 0 1-1.135 1.139h-2.297a1.14 1.14 0 0 1-1.134-1.139v-2.305c0-.626.51-1.138 1.134-1.138" fill="#5A6062"/><path d="M11.04.09h2.298a1.14 1.14 0 0 1 1.134 1.138v2.305a1.14 1.14 0 0 1-1.134 1.138H11.04a1.14 1.14 0 0 1-1.134-1.138V1.228C9.907.6 10.417.09 11.04.09zm5.472 8.801h2.297a1.14 1.14 0 0 1 1.134 1.138v2.306a1.14 1.14 0 0 1-1.134 1.138h-2.297a1.14 1.14 0 0 1-1.134-1.138V10.03c0-.626.51-1.138 1.134-1.138zM5.57 27.414h2.297a1.14 1.14 0 0 1 1.134 1.138v2.305a1.14 1.14 0 0 1-1.134 1.138H5.57a1.14 1.14 0 0 1-1.134-1.138v-2.305c0-.626.51-1.138 1.134-1.138zM3.377 16.532h2.297c.624 0 1.134.512 1.134 1.138v2.306a1.14 1.14 0 0 1-1.134 1.137H3.377a1.139 1.139 0 0 1-1.134-1.137V17.67c0-.626.51-1.138 1.134-1.138zm20.799 0h2.297c.624 0 1.134.512 1.134 1.138v2.306c0 .626-.51 1.137-1.134 1.137h-2.297a1.139 1.139 0 0 1-1.134-1.137V17.67c0-.626.51-1.138 1.134-1.138zm-7.664 5.44h2.297a1.14 1.14 0 0 1 1.134 1.139v2.305c0 .627-.51 1.138-1.134 1.138h-2.297a1.139 1.139 0 0 1-1.134-1.138v-2.305c0-.626.51-1.138 1.134-1.138zm5.471 5.442h2.297a1.14 1.14 0 0 1 1.135 1.138v2.305a1.14 1.14 0 0 1-1.135 1.138h-2.297a1.14 1.14 0 0 1-1.134-1.138v-2.305c0-.626.51-1.138 1.134-1.138z" fill="#2B819F"/><path d="M1.184 6.69h2.298A1.14 1.14 0 0 1 4.616 7.83v2.306a1.14 1.14 0 0 1-1.134 1.137H1.184a1.14 1.14 0 0 1-1.133-1.137V7.829c0-.626.51-1.138 1.133-1.138M16.512 16.532h2.297a1.14 1.14 0 0 1 1.134 1.138v2.306a1.14 1.14 0 0 1-1.134 1.138h-2.297a1.14 1.14 0 0 1-1.134-1.138V17.67c0-.626.51-1.138 1.134-1.138M11.04 14.332h2.298a1.14 1.14 0 0 1 1.134 1.138v2.306a1.14 1.14 0 0 1-1.134 1.138H11.04a1.14 1.14 0 0 1-1.134-1.138V15.47c0-.626.51-1.138 1.134-1.138M11.04 21.973h2.298a1.14 1.14 0 0 1 1.134 1.138v2.305a1.14 1.14 0 0 1-1.134 1.139H11.04a1.14 1.14 0 0 1-1.134-1.139v-2.305c0-.626.51-1.138 1.134-1.138M5.57 21.973h2.297a1.14 1.14 0 0 1 1.134 1.138v2.305a1.14 1.14 0 0 1-1.134 1.139H5.57a1.14 1.14 0 0 1-1.134-1.139v-2.305c0-.626.51-1.138 1.134-1.138M16.512 27.414h2.297a1.14 1.14 0 0 1 1.134 1.138v2.305a1.14 1.14 0 0 1-1.134 1.138h-2.297a1.14 1.14 0 0 1-1.134-1.138v-2.305c0-.627.51-1.138 1.134-1.138M11.04 27.414h2.298a1.14 1.14 0 0 1 1.134 1.138v2.305a1.14 1.14 0 0 1-1.134 1.138H11.04a1.14 1.14 0 0 1-1.134-1.138v-2.305c0-.627.51-1.138 1.134-1.138M44.378 11.87v2.503h-4.443v13.05h-2.874v-13.05h-4.444V11.87h11.761zm11.802 0v2.48h-7.325v3.914h6.959v2.58h-6.992v4.077h7.51v2.503h-10.33V11.87H56.18zm3.241 15.554h2.875V11.87h-2.875v15.554zM72.547 11.87l-6.825 7.255 7.736 8.299H69.48l-6.32-7.267v-1.871l5.876-6.416h3.51zm2.59 15.554h2.874V11.87h-2.874v15.554zM88.264 11.87l-6.827 7.255 7.736 8.299h-3.977l-6.319-7.267v-1.871l5.875-6.416h3.512zm5.464 0v13.05h7.24v2.504H90.853V11.87h2.875z" fill="#5A6062"/></g></svg></svg>