<?xml version="1.0" encoding="utf-8"?>
<!-- Generator: Adobe Illustrator 20.1.0, SVG Export Plug-In . SVG Version: 6.00 Build 0)  -->
<svg version="1.1" xmlns="http://www.w3.org/2000/svg" xmlns:xlink="http://www.w3.org/1999/xlink" x="0px" y="0px"
	 viewBox="0 0 2400 2400" style="enable-background:new 0 0 2400 2400;" xml:space="preserve">
<style type="text/css">
	.st0{fill:#FFFFFF;stroke:#000000;stroke-width:1.0092;stroke-miterlimit:10;}
	.st1{fill:none;stroke:#EDEDED;stroke-width:10;stroke-miterlimit:10;}
</style>
<g id="Ebene_2">
	<rect x="-0.4" class="st0" width="2400.4" height="2418.8"/>
</g>
<g id="Ebene_1">
	<line class="st1" x1="2189.6" y1="-626.5" x2="-46.1" y2="2364.1"/>
	<line class="st1" x1="1671.3" y1="-102.8" x2="-504.6" y2="2807.8"/>
	<line class="st1" x1="1676.9" y1="-280.3" x2="-499" y2="2630.4"/>
	<line class="st1" x1="1486.6" y1="-208" x2="-689.3" y2="2702.6"/>
	<line class="st1" x1="1613.6" y1="-563.6" x2="-562.3" y2="2347"/>
	<line class="st1" x1="1423.3" y1="-491.3" x2="-752.6" y2="2419.3"/>
	<line class="st1" x1="1428.9" y1="-668.8" x2="-747" y2="2241.9"/>
	<line class="st1" x1="1238.6" y1="-596.5" x2="-937.3" y2="2314.2"/>
	<line class="st1" x1="1559.3" y1="-1197.2" x2="-616.5" y2="1713.4"/>
	<line class="st1" x1="1369" y1="-1124.9" x2="-806.9" y2="1785.7"/>
	<line class="st1" x1="1374.6" y1="-1302.4" x2="-801.3" y2="1608.3"/>
	<line class="st1" x1="1184.3" y1="-1230.1" x2="-991.6" y2="1680.6"/>
	<line class="st1" x1="1311.3" y1="-1585.7" x2="-864.6" y2="1324.9"/>
	<line class="st1" x1="1121" y1="-1513.4" x2="-1054.9" y2="1397.2"/>
	<line class="st1" x1="1126.6" y1="-1690.9" x2="-1049.3" y2="1219.8"/>
	<line class="st1" x1="936.3" y1="-1618.6" x2="-1239.6" y2="1292.1"/>
	<line class="st1" x1="2779.5" y1="41.3" x2="603.6" y2="2952"/>
	<line class="st1" x1="2589.2" y1="113.6" x2="413.3" y2="3024.2"/>
	<line class="st1" x1="2594.8" y1="-63.8" x2="418.9" y2="2846.8"/>
	<line class="st1" x1="2404.5" y1="8.5" x2="228.6" y2="2919.1"/>
	<line class="st1" x1="2531.5" y1="-347.2" x2="355.6" y2="2563.5"/>
	<line class="st1" x1="2341.2" y1="-274.9" x2="165.3" y2="2635.8"/>
	<line class="st1" x1="2346.8" y1="-452.3" x2="170.9" y2="2458.3"/>
	<line class="st1" x1="2156.4" y1="-380" x2="-19.4" y2="2530.6"/>
	<line class="st1" x1="3513.4" y1="498.7" x2="1337.5" y2="3409.4"/>
	<line class="st1" x1="3323.1" y1="571" x2="1147.2" y2="3481.7"/>
	<line class="st1" x1="3328.6" y1="393.6" x2="1152.8" y2="3304.2"/>
	<line class="st1" x1="3138.3" y1="465.9" x2="962.5" y2="3376.5"/>
	<line class="st1" x1="3265.4" y1="110.3" x2="1089.5" y2="3020.9"/>
	<line class="st1" x1="3075.1" y1="182.5" x2="899.2" y2="3093.2"/>
	<line class="st1" x1="3080.6" y1="5.1" x2="904.7" y2="2915.8"/>
	<line class="st1" x1="2890.3" y1="77.4" x2="714.4" y2="2988"/>
	<line class="st1" x1="4103.3" y1="1166.6" x2="1927.4" y2="4077.2"/>
	<line class="st1" x1="3913" y1="1238.9" x2="1737.1" y2="4149.5"/>
	<line class="st1" x1="3918.6" y1="1061.4" x2="1742.7" y2="3972.1"/>
	<line class="st1" x1="3728.2" y1="1133.7" x2="1552.4" y2="4044.4"/>
	<line class="st1" x1="3855.3" y1="778.1" x2="1679.4" y2="3688.7"/>
	<line class="st1" x1="3665" y1="850.4" x2="1489.1" y2="3761"/>
	<line class="st1" x1="3670.5" y1="673" x2="1494.6" y2="3583.6"/>
	<line class="st1" x1="3480.2" y1="745.2" x2="1304.3" y2="3655.9"/>
	<line class="st1" x1="-814.1" y1="394.2" x2="1370.7" y2="3422.2"/>
	<line class="st1" x1="-469.5" y1="1045.4" x2="1656.9" y2="3992.4"/>
	<line class="st1" x1="-637.1" y1="987" x2="1489.3" y2="3934"/>
	<line class="st1" x1="-625.1" y1="1190.2" x2="1501.3" y2="4137.2"/>
	<line class="st1" x1="-926.4" y1="962.6" x2="1199.9" y2="3909.6"/>
	<line class="st1" x1="-914.4" y1="1165.8" x2="1212" y2="4112.8"/>
	<line class="st1" x1="-1082" y1="1107.4" x2="1044.4" y2="4054.4"/>
	<line class="st1" x1="-1070" y1="1310.7" x2="1056.4" y2="4257.6"/>
	<line class="st1" x1="-1547.3" y1="824.8" x2="579.1" y2="3771.8"/>
	<line class="st1" x1="-1535.2" y1="1028.1" x2="591.2" y2="3975.1"/>
	<line class="st1" x1="-1702.8" y1="969.7" x2="423.5" y2="3916.6"/>
	<line class="st1" x1="-1690.8" y1="1172.9" x2="435.6" y2="4119.9"/>
	<line class="st1" x1="-1992.1" y1="945.3" x2="134.2" y2="3892.3"/>
	<line class="st1" x1="-1980.1" y1="1148.5" x2="146.3" y2="4095.5"/>
	<line class="st1" x1="-2147.7" y1="1090.1" x2="-21.3" y2="4037.1"/>
	<line class="st1" x1="-2135.7" y1="1293.3" x2="-9.3" y2="4240.3"/>
	<line class="st1" x1="-0.4" y1="31.1" x2="2126" y2="2978.1"/>
	<line class="st1" x1="11.6" y1="234.3" x2="2138" y2="3181.3"/>
	<line class="st1" x1="-156" y1="175.9" x2="1970.4" y2="3122.9"/>
	<line class="st1" x1="-143.9" y1="379.1" x2="1982.4" y2="3326.1"/>
	<line class="st1" x1="-445.3" y1="151.5" x2="1681.1" y2="3098.5"/>
	<line class="st1" x1="-433.2" y1="354.8" x2="1693.1" y2="3301.7"/>
	<line class="st1" x1="-600.9" y1="296.4" x2="1525.5" y2="3243.3"/>
	<line class="st1" x1="-588.8" y1="499.6" x2="1537.6" y2="3446.6"/>
	<line class="st1" x1="655.6" y1="-532.3" x2="2782" y2="2414.7"/>
	<line class="st1" x1="667.7" y1="-329.1" x2="2794.1" y2="2617.9"/>
	<line class="st1" x1="500" y1="-387.5" x2="2626.4" y2="2559.5"/>
	<line class="st1" x1="512.1" y1="-184.3" x2="2638.5" y2="2762.7"/>
	<line class="st1" x1="210.7" y1="-411.9" x2="2337.1" y2="2535.1"/>
	<line class="st1" x1="222.8" y1="-208.7" x2="2349.2" y2="2738.3"/>
	<line class="st1" x1="55.1" y1="-267.1" x2="2181.5" y2="2679.9"/>
	<line class="st1" x1="67.2" y1="-63.9" x2="2193.6" y2="2883.1"/>
	<line class="st1" x1="1469.3" y1="-895.4" x2="3595.7" y2="2051.6"/>
	<line class="st1" x1="1481.4" y1="-692.2" x2="3607.8" y2="2254.8"/>
	<line class="st1" x1="1313.8" y1="-750.6" x2="3440.1" y2="2196.4"/>
	<line class="st1" x1="1325.8" y1="-547.4" x2="3452.2" y2="2399.6"/>
	<line class="st1" x1="1024.5" y1="-775" x2="3150.8" y2="2172"/>
	<line class="st1" x1="1036.5" y1="-571.8" x2="3162.9" y2="2375.2"/>
	<line class="st1" x1="868.9" y1="-630.2" x2="2995.3" y2="2316.8"/>
	<line class="st1" x1="880.9" y1="-427" x2="3007.3" y2="2520"/>
</g>
</svg>
