<?xml version="1.0" encoding="UTF-8"?>
<svg width="51px" height="34px" viewBox="0 0 51 34" version="1.1" xmlns="http://www.w3.org/2000/svg" xmlns:xlink="http://www.w3.org/1999/xlink">
    <!-- Generator: Sketch 40.3 (33839) - http://www.bohemiancoding.com/sketch -->
    <title>Page 1</title>
    <desc>Created with Sketch.</desc>
    <defs></defs>
    <g id="Welcome" stroke="none" stroke-width="1" fill="none" fill-rule="evenodd">
        <g id="Artikeldetailseite-mit-Bundles-Desktop-HD-" transform="translate(-154.000000, -1511.000000)">
            <g id="Trusts" transform="translate(0.000000, 1495.000000)">
                <g id="BIO" transform="translate(154.000000, 16.000000)">
                    <g id="Page-1">
                        <polygon id="Fill-1" fill="#FEFEFE" points="0 33.6854175 50.692013 33.6854175 50.692013 0 0 0"></polygon>
                        <polygon id="Fill-2" fill="#95C11F" points="0.469266234 33.2176699 50.2227468 33.2176699 50.2227468 0.46807767 0.469266234 0.46807767"></polygon>
                        <g id="Group-27" transform="translate(8.279221, 6.287359)" fill="#FEFEFE">
                            <path d="M11.4633097,1.49187379 C12.0044396,1.53445631 12.2706994,1.56218447 12.8009006,1.62556311 C12.9731084,1.64734951 13.1367058,1.57208738 13.1658487,1.4565534 C13.258576,1.10136893 13.3052708,0.922456311 13.3956799,0.563970874 C13.4254851,0.447116505 13.5122513,0.458339806 13.5861019,0.58938835 C13.8192448,0.989466019 13.9331669,1.19148544 14.15505,1.59684466 C14.2285695,1.72954369 14.4256149,1.85630097 14.5918617,1.88964078 C15.0876214,1.99032039 15.2684396,2.03521359 15.8681864,2.19498058 C16.0334396,2.23921359 16.0602643,2.31414563 15.9403812,2.35606796 C15.5711279,2.48348544 15.381037,2.51814563 15.000524,2.67296117 C14.8779916,2.72181553 14.8332838,2.8726699 14.9011734,3.00635922 C15.1064981,3.41435922 15.2031994,3.6325534 15.3926279,4.06960194 C15.45555,4.21253398 15.3959396,4.22837864 15.2601604,4.1085534 C14.8438812,3.74346602 14.6272968,3.60680583 14.1898227,3.30080583 C14.0444396,3.19979612 13.8258682,3.16282524 13.7016799,3.21531068 C13.3287838,3.37705825 13.1426669,3.49061165 12.7638097,3.65995146 C12.6396214,3.71639806 12.5651084,3.66853398 12.5965695,3.55630097 C12.6942643,3.20969903 12.7429461,3.00635922 12.8379916,2.66041748 C12.8687903,2.54752427 12.7704331,2.37917476 12.619089,2.28971845 C12.1498227,2.0111165 11.9117123,1.87709709 11.4301929,1.61962136 C11.2738812,1.5351165 11.2881214,1.4786699 11.4633097,1.49187379" id="Fill-3"></path>
                            <path d="M6.19067143,5.3373068 C6.83578831,5.20295728 7.03482078,5.17126796 7.6454961,5.08412233 C7.82797013,5.05837476 8.01309351,4.94944272 8.05713896,4.82994757 C8.18993766,4.45924854 8.2521974,4.27571456 8.38267792,3.91062718 C8.42473636,3.79278252 8.51448312,3.78717087 8.58104805,3.89643301 C8.79167143,4.24039417 8.89532727,4.41369515 9.09866494,4.76458835 C9.16522987,4.87814175 9.36326883,4.97816117 9.53547662,4.96792816 C10.1093922,4.93359806 10.2418597,4.90025825 10.8243857,4.8718699 C10.9919571,4.86328738 11.0134831,4.9289767 10.8942623,5.00588932 C10.4475156,5.29472427 10.3114052,5.41289903 9.91532727,5.65056893 C9.78882078,5.72682136 9.7258987,5.8690932 9.79014545,5.98891845 C9.98288571,6.34674369 10.0782623,6.52829709 10.2637169,6.89866602 C10.3253143,7.02080194 10.2587494,7.05414175 10.1156844,6.97392816 C9.68185325,6.72965631 9.46129481,6.61676311 9.00891818,6.41210291 C8.85922987,6.34245243 8.62476234,6.35334563 8.48666494,6.43553981 C8.0683987,6.68476311 7.92831429,6.77454951 7.36632078,7.12544272 C7.21034026,7.22249126 7.13384026,7.2073068 7.19212597,7.05777282 C7.37426883,6.59266602 7.43719091,6.48043301 7.58687922,6.10874369 C7.63556104,5.98792816 7.54117792,5.84367573 7.38354156,5.79548155 C6.89506753,5.64627767 6.64702208,5.58289903 6.13867792,5.47957864 C5.97408701,5.44656893 5.99693766,5.38120971 6.19067143,5.3373068" id="Fill-5"></path>
                            <path d="M3.40338896,10.2139961 C3.99286948,10.1658019 4.27635,10.1549087 4.82476558,10.1532583 C5.00326558,10.1525981 5.21918766,10.0562097 5.30794091,9.93473398 C5.58446688,9.56106408 5.72057727,9.37620971 5.99147338,9.00980194 C6.07890195,8.89195728 6.16335,8.89657864 6.18123312,9.02069515 C6.23157078,9.40393786 6.25640844,9.59803495 6.29747338,9.98820971 C6.31072013,10.1139767 6.45709675,10.2281903 6.61638896,10.2503068 C7.17142792,10.3275495 7.26018117,10.3424039 7.82018766,10.4457243 C7.97120065,10.4737825 7.97484351,10.5411223 7.83012273,10.5903068 C7.38238247,10.7385204 7.15354481,10.8217049 6.68328506,11.0016078 C6.53160974,11.060365 6.39483701,11.2161709 6.39715519,11.3449087 C6.39980455,11.740035 6.39980455,11.9394136 6.39483701,12.3418019 C6.39185649,12.4748311 6.31270714,12.5048699 6.21567468,12.4104621 C5.91960974,12.1265786 5.76727208,11.9876078 5.44868766,11.7222097 C5.34370714,11.6367146 5.11917468,11.6251612 4.95060974,11.6967922 C4.43729805,11.9186175 4.17633701,12.0374524 3.64878506,12.2837049 C3.47492143,12.3645786 3.41431753,12.3289282 3.51830455,12.2005204 C3.82927208,11.811666 3.98558377,11.6185592 4.2912526,11.2366369 C4.3932526,11.1115301 4.37835,10.9471417 4.2604539,10.8745204 C3.89086948,10.6490641 3.69978506,10.5450835 3.29443442,10.3542874 C3.16329156,10.2935495 3.21429156,10.2295107 3.40338896,10.2139961" id="Fill-7"></path>
                            <path d="M12.8661078,16.7150272 C12.4789714,16.9352019 12.2670234,17.0794544 11.8557117,17.3676291 C11.7222506,17.4610466 11.6397896,17.6624058 11.6739,17.8135903 C11.7772247,18.2760563 11.8265688,18.5117456 11.9245948,19.0049107 C11.9567182,19.1666583 11.8871727,19.2191437 11.7709325,19.1207748 C11.4175753,18.8187359 11.2404,18.6748136 10.8857182,18.3968718 C10.7684844,18.3044447 10.5601792,18.3159981 10.4227442,18.4226194 C10.0038156,18.7438039 9.79385455,18.9101728 9.36863377,19.2511631 C9.22821818,19.3647165 9.16993247,19.3178427 9.2355039,19.1518039 C9.43652338,18.6460951 9.53521169,18.4005029 9.72927662,17.9205417 C9.79385455,17.7634155 9.74782208,17.5689883 9.62661429,17.4881146 C9.25702987,17.2408718 9.06958831,17.1220369 8.69271818,16.8975709 C8.57018571,16.8249495 8.60264026,16.7493573 8.76226364,16.7282311 C9.26034156,16.6655126 9.50606883,16.6407553 9.99421169,16.6018039 C10.1528416,16.5886 10.3320039,16.4588718 10.3909519,16.313299 C10.5777312,15.8580951 10.6701273,15.6359398 10.8479649,15.2091243 C10.9059195,15.0691631 10.983413,15.0681728 11.0208351,15.2025223 C11.1347571,15.6184447 11.1903935,15.8300369 11.3019974,16.265765 C11.3374325,16.4067165 11.4944065,16.5199398 11.6480688,16.517299 C12.1249519,16.507066 12.3633935,16.4971631 12.8263675,16.551299 C12.9773805,16.5671437 12.9912896,16.6443864 12.8661078,16.7150272" id="Fill-9"></path>
                            <path d="M19.2265364,17.4303476 C18.8867571,17.5415903 18.7165364,17.6019981 18.3721208,17.7254544 C18.2591922,17.7653961 18.2071987,17.911299 18.256874,18.0492796 C18.4075558,18.4671825 18.4853805,18.6758039 18.6436792,19.0950272 C18.6966662,19.2326777 18.6390429,19.257765 18.5151857,19.1485029 C18.1422896,18.8193961 17.9588221,18.6513767 17.5971857,18.3117068 C17.4766403,18.1998039 17.2872117,18.145668 17.1713026,18.1945223 C16.8212571,18.3417456 16.6440818,18.4189883 16.2831078,18.5873379 C16.1635558,18.6431243 16.1032831,18.5846971 16.1479909,18.4586 C16.287413,18.0783282 16.3543091,17.8954544 16.4864455,17.5363087 C16.5298286,17.4174738 16.469887,17.2299786 16.3543091,17.1167553 C16.0009519,16.7661922 15.8257636,16.5895903 15.4783675,16.2390272 C15.3667636,16.1248136 15.3892831,16.0670466 15.5287052,16.1109495 C15.9612117,16.2469495 16.1774649,16.3152796 16.6083156,16.4542505 C16.7470753,16.4998039 16.8941143,16.4450078 16.9355104,16.3357456 C17.0613545,15.9944252 17.1232831,15.8297068 17.2448221,15.5042311 C17.2835688,15.4005806 17.3514584,15.4243476 17.3958351,15.5590272 C17.5336013,15.973299 17.6038091,16.1815903 17.7458805,16.6011437 C17.791913,16.7364835 17.9439195,16.8860175 18.0843351,16.9302505 C18.5181662,17.0725223 18.7337571,17.1425029 19.168913,17.2831243 C19.3093286,17.3286777 19.3354909,17.3940369 19.2265364,17.4303476" id="Fill-11"></path>
                            <path d="M24.9346948,15.748932 C24.5541818,15.8938447 24.3770065,15.969767 24.0087468,16.1130291 C23.8901883,16.1585825 23.8441558,16.3041553 23.9093961,16.4375146 C24.1041234,16.8405631 24.2044675,17.0419223 24.4121104,17.4390291 C24.4790065,17.5680971 24.4184026,17.5968155 24.2763312,17.4958058 C23.8441558,17.1901359 23.6322078,17.0369709 23.2225519,16.6692427 C23.0874351,16.5484272 22.8844286,16.4771262 22.7678571,16.5144272 C22.4168182,16.6256699 22.2416299,16.6801359 21.8925779,16.7943495 C21.777,16.8316505 21.7107662,16.7692621 21.7435519,16.6560388 C21.849526,16.3124078 21.9018506,16.143068 22.0065,15.8076893 C22.0435909,15.6957864 21.9641104,15.507301 21.8376039,15.3835146 C21.4425195,15.0002718 21.2477922,14.803534 20.8666169,14.4169903 C20.7427597,14.2899029 20.7606429,14.2370874 20.9083442,14.2961748 C21.3617143,14.4820194 21.5875714,14.5727961 22.0465714,14.7474175 C22.1955974,14.8051845 22.3479351,14.762932 22.383039,14.6559806 C22.492987,14.3202718 22.5499481,14.1539029 22.6645325,13.821165 C22.7012922,13.7128932 22.7744805,13.7419417 22.8294545,13.8815728 C22.9973571,14.317301 23.0847857,14.5358252 23.2626234,14.9708932 C23.3215714,15.1118447 23.4924545,15.2679806 23.6477727,15.320466 C24.1226688,15.4799029 24.3707143,15.507301 24.8654805,15.6076505 C25.0251039,15.6380194 25.0555714,15.7013981 24.9346948,15.748932" id="Fill-13"></path>
                            <path d="M28.6583903,11.9705417 C28.2954292,12.2224058 28.1169292,12.3389301 27.7645656,12.5531631 C27.6526305,12.6224835 27.6016305,12.7647553 27.6526305,12.8697262 C27.8105981,13.1889301 27.8914032,13.3460563 28.0533448,13.6546971 C28.10865,13.7576874 28.0503643,13.7860757 27.9275006,13.7197262 C27.5555981,13.5206777 27.373124,13.4120757 27.014137,13.1806777 C26.8952474,13.1040951 26.712111,13.0806583 26.60415,13.1291825 C26.2779487,13.277066 26.117663,13.3460563 25.8004032,13.4813961 C25.6954227,13.5262893 25.6381305,13.4827165 25.6722409,13.3859981 C25.7735786,13.0912214 25.8259032,12.9443282 25.9325396,12.6465806 C25.96665,12.5488718 25.9040591,12.3976874 25.7891435,12.3098816 C25.4424097,12.0368913 25.2735136,11.8764641 24.9373773,11.5826777 C24.8280916,11.4876097 24.8453123,11.4387553 24.978111,11.4684641 C25.3834617,11.5684835 25.5887864,11.6127165 26.0070526,11.6840175 C26.1441565,11.706134 26.2858968,11.6328524 26.3229877,11.5212796 C26.4398903,11.1746777 26.4998318,10.9993961 26.6207084,10.6379398 C26.661111,10.5227359 26.729663,10.5286777 26.7743708,10.6511437 C26.9137929,11.0333961 26.9889682,11.2232019 27.1333578,11.6018233 C27.1797214,11.7239592 27.3343773,11.8338816 27.4767799,11.8398233 C27.9182279,11.8599592 28.1417669,11.8616097 28.6014292,11.8365223 C28.7494617,11.8292602 28.7742994,11.8876874 28.6583903,11.9705417" id="Fill-15"></path>
                            <path d="M31.6809682,6.2444466 C31.3322474,6.60821359 31.1570591,6.78745631 30.8090006,7.13306796 C30.6967344,7.24332039 30.6364617,7.41695146 30.6738838,7.51796117 C30.7914487,7.82264078 30.8513903,7.97283495 30.9772344,8.26530097 C31.0173058,8.36003883 30.9610071,8.41846602 30.8497344,8.39106796 C30.5112799,8.30953398 30.346689,8.26001942 30.025124,8.14415534 C29.9204747,8.10586408 29.7439617,8.15768932 29.6350071,8.25902913 C29.301189,8.56502913 29.1260006,8.7148932 28.816689,8.9868932 C28.716676,9.07535922 28.6646825,9.04862136 28.701111,8.93209709 C28.8123838,8.57163107 28.9001435,8.37720388 29.0355916,7.99759223 C29.0809617,7.87182524 29.0349292,7.73021359 28.9339227,7.68234951 C28.624611,7.53116505 28.4739292,7.44732039 28.1752149,7.27236893 C28.0788448,7.21592233 28.1007019,7.15485437 28.2245591,7.13537864 C28.6100396,7.07332039 28.8044357,7.03535922 29.201176,6.94161165 C29.3290071,6.91025243 29.4727344,6.77557282 29.5194292,6.64584466 C29.6615006,6.23982524 29.7320396,6.03549515 29.8780851,5.61891262 C29.9234552,5.48291262 29.9893578,5.4631068 30.0221435,5.57500971 C30.1228188,5.92095146 30.1758058,6.08963107 30.2824422,6.42104854 C30.3175461,6.52733981 30.456637,6.57850485 30.5894357,6.53328155 C31.0030656,6.39001942 31.2133578,6.31145631 31.6362604,6.13452427 C31.7743578,6.07972816 31.7948903,6.12825243 31.6809682,6.2444466" id="Fill-17"></path>
                            <path d="M25.1086909,2.47186602 C25.4663532,2.50256505 25.6047818,2.49365243 26.0237104,2.47978835 C26.1455805,2.47582718 26.2717558,2.37118641 26.3052039,2.24376893 C26.4091909,1.84930291 26.4625091,1.64530291 26.5698078,1.22310874 C26.6049117,1.08710874 26.6665091,1.07918641 26.7062494,1.2052835 C26.8297753,1.59776893 26.8920351,1.78460388 27.0168857,2.15365243 C27.0569571,2.27215728 27.1887623,2.34609903 27.3129506,2.34609903 C27.6467688,2.34609903 27.8590481,2.33553592 28.2773143,2.31440971 C28.4031584,2.30813786 28.4313078,2.35765243 28.3230156,2.44281748 C28.0153597,2.68411845 27.8567299,2.76664272 27.5556974,3.0062932 C27.4527039,3.08815728 27.4129636,3.25782718 27.4540286,3.3694 C27.5795416,3.70576893 27.6427948,3.87081748 27.7712883,4.19398252 C27.8136779,4.30060388 27.7656584,4.34120583 27.6639896,4.2874 C27.3556714,4.12202136 27.2023403,4.03619612 26.8963403,3.85497282 C26.7959961,3.79588544 26.6357104,3.81272039 26.5413273,3.8906233 C26.2561909,4.1282932 26.115113,4.24283689 25.8356065,4.4577301 C25.7448662,4.52705049 25.6948597,4.48611845 25.7243338,4.37883689 C25.815074,4.05633204 25.8607753,3.88468155 25.9574766,3.53114757 C25.9889377,3.4152835 25.9296584,3.27103107 25.832626,3.20171068 C25.5200026,2.97823495 25.3732948,2.85213786 25.0732558,2.60159417 C24.9748987,2.5197301 24.991126,2.46163301 25.1086909,2.47186602" id="Fill-19"></path>
                            <path d="M18.4801149,1.19788932 C18.9010305,1.31804466 19.1099981,1.37845243 19.5259461,1.49992816 C19.66305,1.53821942 19.8028032,1.48276311 19.8385695,1.37713204 C19.9521604,1.04505437 20.0087903,0.875384466 20.1270175,0.524161165 C20.1644396,0.41258835 20.2356409,0.427442718 20.2813422,0.561462136 C20.4244071,0.977054369 20.4929591,1.18501553 20.630063,1.5966466 C20.6734461,1.72967573 20.8188292,1.86963689 20.9529526,1.90891845 C21.3712188,2.03006408 21.577537,2.08783107 21.9941474,2.20567573 C22.1295955,2.24429709 22.1494656,2.31196699 22.038524,2.35851068 C21.6984136,2.49814175 21.5331604,2.56383107 21.2023227,2.68728738 C21.095024,2.72722913 21.0426994,2.86553981 21.0834331,2.99625825 C21.2096084,3.39402524 21.2705435,3.58977282 21.3944006,3.97928738 C21.4344721,4.10670485 21.3811539,4.12552039 21.2761734,4.01757864 C20.9599071,3.6940835 20.7992903,3.53134563 20.475076,3.20818058 C20.3691019,3.10221942 20.1955695,3.04478252 20.092576,3.07977282 C19.7786279,3.18606408 19.6243032,3.23623883 19.3156539,3.3309767 C19.2156409,3.36365631 19.1593422,3.30985049 19.1934526,3.21313204 C19.2971084,2.92066602 19.3507578,2.77278252 19.4560695,2.46843301 C19.4911734,2.36841359 19.4292448,2.20039417 19.3189656,2.09707379 C18.9748812,1.77687961 18.7990305,1.61843301 18.4440175,1.31045243 C18.3281084,1.20845243 18.3446669,1.15992816 18.4801149,1.19788932" id="Fill-21"></path>
                            <path d="M34.9570558,0.949359223 C34.6510558,1.22730097 34.490439,1.3708932 34.1625818,1.67062136 C34.0552831,1.768 33.9963351,1.91720388 34.0327636,1.99873786 C34.145361,2.24763107 34.2036468,2.36745631 34.3278351,2.59720388 C34.3692312,2.67213592 34.3135948,2.72495146 34.2043091,2.71207767 C33.8747961,2.67543689 33.7138481,2.64803883 33.3955948,2.58532039 C33.2909455,2.56452427 33.1150948,2.63021359 33.0018351,2.73353398 C32.6600688,3.04646602 32.4868675,3.20491262 32.1374844,3.52015534 C32.0232312,3.62215534 31.969913,3.61027184 32.0199195,3.4904466 C32.1732506,3.12932039 32.2500818,2.9467767 32.4001013,2.58499029 C32.4511013,2.46681553 32.409374,2.34434951 32.3086987,2.3123301 C31.999387,2.21825243 31.8490364,2.16345631 31.5489974,2.04462136 C31.4526273,2.006 31.4784584,1.94427184 31.6092701,1.90631068 C32.0076662,1.79374757 32.207361,1.73300971 32.6064195,1.6095534 C32.7359065,1.56928155 32.8806273,1.43790291 32.9306338,1.31840777 C33.0813156,0.946058252 33.1581468,0.761203883 33.3065104,0.389184466 C33.3561857,0.269029126 33.4171208,0.253514563 33.444939,0.352543689 C33.529387,0.654582524 33.574426,0.800815534 33.6711273,1.08304854 C33.7025883,1.17448544 33.8310818,1.2124466 33.9575883,1.17316505 C34.3483675,1.04409709 34.5411078,0.981048544 34.9163221,0.86023301 C35.037861,0.820621359 35.0564065,0.860893204 34.9570558,0.949359223" id="Fill-23"></path>
                            <path d="M21.4376844,7.55773786 C21.6612234,7.49799029 21.6930156,7.38476699 21.4287429,7.39863107 C20.9757039,7.42107767 15.6972039,8.63220388 11.1221065,11.2924563 C6.14397662,14.1870777 4.63914545,15.6289417 3.57609351,16.4502233 C3.2946,16.6677573 3.08662597,16.6710583 3.03695065,16.5383592 C2.86706104,16.0871165 2.76075584,15.8299709 2.62232727,15.4067864 C2.57993766,15.2780485 2.45740519,15.2925728 2.40309351,15.4724757 C2.21664545,16.0851359 2.12756104,16.4591359 1.94574935,17.0120485 C1.88812597,17.1893107 1.82719091,17.3837379 1.49701558,17.6128252 C0.843619481,18.0660485 0.707509091,18.1545146 0.300171429,18.4308058 C0.15247013,18.5311553 0.0759701299,18.6414078 0.371041558,18.6945534 C0.654522078,18.7460485 0.710820779,18.7566117 1.09365195,18.8269223 C1.39965195,18.8830388 1.29864545,19.0893495 1.25526234,19.2689223 C1.13107403,19.7815631 1.07775584,19.9878738 0.912171429,20.5153689 C0.856203896,20.6883398 0.927736364,20.7107864 1.06947662,20.563233 C1.50463247,20.1103398 1.64571039,19.957835 2.10471039,19.4811748 C2.27791169,19.3012718 2.43952208,19.0952913 2.62133377,19.1279709 C3.07006753,19.2085146 3.12404805,19.2220485 3.75293766,19.3405534 C4.03178182,19.3933689 4.03012597,19.2652913 3.95594416,19.0824175 C3.74068442,18.5509612 3.78042468,18.6209417 3.61715844,18.1710194 C3.56483377,18.0274272 3.55556104,17.7587282 3.71882727,17.6006117 C6.34135325,15.0568835 7.42725584,14.2260291 11.0323597,11.8826699 C13.8559052,10.0466699 17.6090416,8.58830097 21.4376844,7.55773786" id="Fill-25"></path>
                        </g>
                    </g>
                </g>
            </g>
        </g>
    </g>
</svg>