<?xml version="1.0" encoding="UTF-8"?>
<svg width="101px" height="32px" viewBox="0 0 101 32" version="1.1" xmlns="http://www.w3.org/2000/svg" xmlns:xlink="http://www.w3.org/1999/xlink">
    <!-- Generator: Sketch 41.2 (35397) - http://www.bohemiancoding.com/sketch -->
    <title>logo</title>
    <desc>Created with Sketch.</desc>
    <defs></defs>
    <g id="Page-1" stroke="none" stroke-width="1" fill="none" fill-rule="evenodd">
        <g id="logo">
            <path d="M21.9833567,6.69076757 L24.2803311,6.69076757 C24.904256,6.69076757 25.414599,7.20276757 25.414599,7.82892973 L25.414599,10.1346595 C25.414599,10.7601297 24.904256,11.2723027 24.2803311,11.2723027 L21.9833567,11.2723027 C21.3592594,11.2723027 20.8490887,10.7601297 20.8490887,10.1346595 L20.8490887,7.82892973 C20.8490887,7.20276757 21.3592594,6.69076757 21.9833567,6.69076757" id="Fill-1" fill="#5A6062"></path>
            <path d="M21.9833567,21.9729297 L24.2803311,21.9729297 C24.904256,21.9729297 25.414599,22.4847568 25.414599,23.1110919 L25.414599,25.4164757 C25.414599,26.0422919 24.904256,26.5546378 24.2803311,26.5546378 L21.9833567,26.5546378 C21.3592594,26.5546378 20.8490887,26.0422919 20.8490887,25.4164757 L20.8490887,23.1110919 C20.8490887,22.4847568 21.3592594,21.9729297 21.9833567,21.9729297" id="Fill-2" fill="#5A6062"></path>
            <path d="M11.040541,0.089772973 L13.3376877,0.089772973 C13.9614403,0.089772973 14.472128,0.601254054 14.472128,1.22776216 L14.472128,3.53314595 C14.472128,4.15896216 13.9614403,4.67096216 13.3376877,4.67096216 L11.040541,4.67096216 C10.4167884,4.67096216 9.90661775,4.15896216 9.90661775,3.53314595 L9.90661775,1.22776216 C9.90661775,0.601254054 10.4167884,0.089772973 11.040541,0.089772973 Z M16.5117765,8.89132973 L18.8090956,8.89132973 C19.4330205,8.89132973 19.9433635,9.40332973 19.9433635,10.0291459 L19.9433635,12.3352216 C19.9433635,12.9606919 19.4330205,13.4725189 18.8090956,13.4725189 L16.5117765,13.4725189 C15.8881962,13.4725189 15.3776809,12.9606919 15.3776809,12.3352216 L15.3776809,10.0291459 C15.3776809,9.40332973 15.8881962,8.89132973 16.5117765,8.89132973 Z M5.56965017,27.4137946 L7.86714164,27.4137946 C8.49037713,27.4137946 9.00072014,27.9256216 9.00072014,28.5519568 L9.00072014,30.8571676 C9.00072014,31.4824649 8.49037713,31.9953297 7.86714164,31.9953297 L5.56965017,31.9953297 C4.94572526,31.9953297 4.43589932,31.4824649 4.43589932,30.8571676 L4.43589932,28.5519568 C4.43589932,27.9256216 4.94572526,27.4137946 5.56965017,27.4137946 Z M3.37712287,16.5324108 L5.67426962,16.5324108 C6.29767747,16.5324108 6.80819283,17.0438919 6.80819283,17.670227 L6.80819283,19.9763027 C6.80819283,20.6016 6.29767747,21.113427 5.67426962,21.113427 L3.37712287,21.113427 C2.7530256,21.113427 2.24319966,20.6016 2.24319966,19.9763027 L2.24319966,17.670227 C2.24319966,17.0438919 2.7530256,16.5324108 3.37712287,16.5324108 Z M24.175884,16.5324108 L26.4728584,16.5324108 C27.0967833,16.5324108 27.6069539,17.0438919 27.6069539,17.670227 L27.6069539,19.9763027 C27.6069539,20.6016 27.0967833,21.113427 26.4728584,21.113427 L24.175884,21.113427 C23.5517867,21.113427 23.0417884,20.6016 23.0417884,19.9763027 L23.0417884,17.670227 C23.0417884,17.0438919 23.5517867,16.5324108 24.175884,16.5324108 Z M16.5117765,21.9729297 L18.8090956,21.9729297 C19.4330205,21.9729297 19.9433635,22.4847568 19.9433635,23.1107459 L19.9433635,25.4164757 C19.9433635,26.0426378 19.4330205,26.5541189 18.8090956,26.5541189 L16.5117765,26.5541189 C15.8881962,26.5541189 15.3776809,26.0426378 15.3776809,25.4164757 L15.3776809,23.1107459 C15.3776809,22.4847568 15.8881962,21.9729297 16.5117765,21.9729297 Z M21.9833567,27.4137946 L24.2803311,27.4137946 C24.904256,27.4137946 25.414599,27.9256216 25.414599,28.5519568 L25.414599,30.8571676 C25.414599,31.4824649 24.904256,31.9953297 24.2803311,31.9953297 L21.9833567,31.9953297 C21.3592594,31.9953297 20.8490887,31.4824649 20.8490887,30.8571676 L20.8490887,28.5519568 C20.8490887,27.9256216 21.3592594,27.4137946 21.9833567,27.4137946 L21.9833567,27.4137946 Z" id="Fill-3" fill="#2B819F"></path>
            <path d="M1.18442321,6.69076757 L3.48174232,6.69076757 C4.10515017,6.69076757 4.61566553,7.20276757 4.61566553,7.82892973 L4.61566553,10.1346595 C4.61566553,10.7601297 4.10515017,11.2723027 3.48174232,11.2723027 L1.18442321,11.2723027 C0.560498294,11.2723027 0.0505,10.7601297 0.0505,10.1346595 L0.0505,7.82892973 C0.0505,7.20276757 0.560498294,6.69076757 1.18442321,6.69076757" id="Fill-4" fill="#5A6062"></path>
            <path d="M16.5119488,16.5324108 L18.8089232,16.5324108 C19.4330205,16.5324108 19.9433635,17.0442378 19.9433635,17.670227 L19.9433635,19.9759568 C19.9433635,20.6016 19.4330205,21.1139459 18.8089232,21.1139459 L16.5119488,21.1139459 C15.8881962,21.1139459 15.3776809,20.6016 15.3776809,19.9759568 L15.3776809,17.670227 C15.3776809,17.0442378 15.8881962,16.5324108 16.5119488,16.5324108" id="Fill-5" fill="#5A6062"></path>
            <path d="M11.0408857,14.3318486 L13.3378601,14.3318486 C13.9614403,14.3318486 14.472128,14.8436757 14.472128,15.4698378 L14.472128,17.7757405 C14.472128,18.4013838 13.9614403,18.9135568 13.3378601,18.9135568 L11.0408857,18.9135568 C10.4167884,18.9135568 9.90661775,18.4013838 9.90661775,17.7757405 L9.90661775,15.4698378 C9.90661775,14.8436757 10.4167884,14.3318486 11.0408857,14.3318486" id="Fill-6" fill="#5A6062"></path>
            <path d="M11.0408857,21.9729297 L13.3378601,21.9729297 C13.9614403,21.9729297 14.472128,22.4847568 14.472128,23.1110919 L14.472128,25.4164757 C14.472128,26.0422919 13.9614403,26.5546378 13.3378601,26.5546378 L11.0408857,26.5546378 C10.4167884,26.5546378 9.90661775,26.0422919 9.90661775,25.4164757 L9.90661775,23.1110919 C9.90661775,22.4847568 10.4167884,21.9729297 11.0408857,21.9729297" id="Fill-7" fill="#5A6062"></path>
            <path d="M5.56965017,21.9729297 L7.86714164,21.9729297 C8.49003242,21.9729297 9.00072014,22.4847568 9.00072014,23.1110919 L9.00072014,25.4164757 C9.00072014,26.0422919 8.49003242,26.5546378 7.86714164,26.5546378 L5.56965017,26.5546378 C4.94572526,26.5546378 4.43572696,26.0422919 4.43572696,25.4164757 L4.43572696,23.1110919 C4.43572696,22.4847568 4.94572526,21.9729297 5.56965017,21.9729297" id="Fill-8" fill="#5A6062"></path>
            <path d="M16.5119488,27.4137946 L18.8089232,27.4137946 C19.4330205,27.4137946 19.9433635,27.9252757 19.9433635,28.5517838 L19.9433635,30.8573405 C19.9433635,31.4824649 19.4330205,31.9953297 18.8089232,31.9953297 L16.5119488,31.9953297 C15.8881962,31.9953297 15.3776809,31.4824649 15.3776809,30.8573405 L15.3776809,28.5517838 C15.3776809,27.9252757 15.8881962,27.4137946 16.5119488,27.4137946" id="Fill-9" fill="#5A6062"></path>
            <path d="M11.0408857,27.4137946 L13.3378601,27.4137946 C13.9614403,27.4137946 14.472128,27.9252757 14.472128,28.5517838 L14.472128,30.8573405 C14.472128,31.4824649 13.9614403,31.9953297 13.3378601,31.9953297 L11.0408857,31.9953297 C10.4167884,31.9953297 9.90661775,31.4824649 9.90661775,30.8573405 L9.90661775,28.5517838 C9.90661775,27.9252757 10.4167884,27.4137946 11.0408857,27.4137946" id="Fill-10" fill="#5A6062"></path>
            <path d="M44.3782969,11.8699243 L44.3782969,14.3726703 L39.9353311,14.3726703 L39.9353311,27.4236541 L37.0611399,27.4236541 L37.0611399,14.3726703 L32.6174846,14.3726703 L32.6174846,11.8699243 L44.3782969,11.8699243 Z M56.180302,11.8699243 L56.180302,14.3501838 L48.8552167,14.3501838 L48.8552167,18.2642162 L55.8140478,18.2642162 L55.8140478,20.8442811 L48.8216075,20.8442811 L48.8216075,24.9205622 L56.3321468,24.9205622 L56.3321468,27.4236541 L46.00257,27.4236541 L46.00257,11.8699243 L56.180302,11.8699243 Z M59.4210922,27.4236541 L62.2959727,27.4236541 L62.2959727,11.8699243 L59.4210922,11.8699243 L59.4210922,27.4236541 Z M72.5469556,11.8699243 L65.7215273,19.1249297 L73.4575068,27.4236541 L69.4805887,27.4236541 L63.1613669,20.1570595 L63.1613669,18.2858378 L69.0366024,11.8699243 L72.5469556,11.8699243 Z M75.1365887,27.4236541 L78.0111246,27.4236541 L78.0111246,11.8699243 L75.1365887,11.8699243 L75.1365887,27.4236541 Z M88.2636587,11.8699243 L81.4373686,19.1249297 L89.1731758,27.4236541 L85.1962577,27.4236541 L78.8773805,20.1570595 L78.8773805,18.2858378 L84.7522713,11.8699243 L88.2636587,11.8699243 Z M93.7278276,11.8699243 L93.7278276,24.9205622 L100.96777,24.9205622 L100.96777,27.4236541 L90.8532918,27.4236541 L90.8532918,11.8699243 L93.7278276,11.8699243 L93.7278276,11.8699243 Z" id="Fill-11" fill="#5A6062"></path>
        </g>
    </g>
</svg>