<?xml version="1.0" encoding="utf-8"?>
<!-- Generator: Adobe Illustrator 19.2.1, SVG Export Plug-In . SVG Version: 6.00 Build 0)  -->
<svg version="1.1" id="Ebene_1" xmlns="http://www.w3.org/2000/svg" xmlns:xlink="http://www.w3.org/1999/xlink" x="0px" y="0px"
	 viewBox="0 0 15 15" style="enable-background:new 0 0 15 15;" xml:space="preserve">
<style type="text/css">
	.st0{fill:#f29106;}
</style>
<path class="st0" d="M9.6,7.5l5.2-5.2c0.2-0.2,0.2-0.5,0-0.7l-1.4-1.4c-0.2-0.2-0.5-0.2-0.7,0L7.5,5.4L2.3,0.2
	c-0.2-0.2-0.5-0.2-0.7,0L0.2,1.5c-0.2,0.2-0.2,0.5,0,0.7l5.2,5.2l-5.2,5.2c-0.2,0.2-0.2,0.5,0,0.7l1.4,1.4c0.2,0.2,0.5,0.2,0.7,0
	l5.2-5.2l5.2,5.2c0.2,0.2,0.5,0.2,0.7,0l1.4-1.4c0.2-0.2,0.2-0.5,0-0.7L9.6,7.5z"/>
</svg>
