<?xml version="1.0" encoding="utf-8"?>
<!-- Generator: Adobe Illustrator 20.1.0, SVG Export Plug-In . SVG Version: 6.00 Build 0)  -->
<svg version="1.1"
	 id="Ebene_1" xmlns:cc="http://creativecommons.org/ns#" xmlns:dc="http://purl.org/dc/elements/1.1/" xmlns:inkscape="http://www.inkscape.org/namespaces/inkscape" xmlns:rdf="http://www.w3.org/1999/02/22-rdf-syntax-ns#" xmlns:sodipodi="http://sodipodi.sourceforge.net/DTD/sodipodi-0.dtd" xmlns:svg="http://www.w3.org/2000/svg"
	 xmlns="http://www.w3.org/2000/svg" xmlns:xlink="http://www.w3.org/1999/xlink" x="0px" y="0px" viewBox="0 0 50 38.5"
	 style="enable-background:new 0 0 50 38.5;" xml:space="preserve">
<style type="text/css">
	.st0{fill:#5B6163;}
</style>
<g transform="translate(0,-952.36218)">
	<path class="st0" d="M18.2,952.2l-2.8,5.7H4c-2.2,0-4,1.8-4,4v25c0,2.2,1.8,4,4,4h42.1c2.2,0,4-1.8,4-4v-25c0-2.2-1.8-4-4-4H34.7
		l-2.8-5.7H18.2z M25,962.4c6.6,0,11.9,5.4,11.9,11.9s-5.4,11.9-11.9,11.9c-6.6,0-11.9-5.4-11.9-11.9
		C13.1,967.8,18.4,962.4,25,962.4z M25,965.8c-4.7,0-8.5,3.8-8.5,8.5c0,4.7,3.8,8.5,8.5,8.5c4.7,0,8.5-3.8,8.5-8.5
		S29.7,965.8,25,965.8z"/>
</g>
</svg>
