<?xml version="1.0" encoding="utf-8"?>
<!-- Generator: Adobe Illustrator 20.1.0, SVG Export Plug-In . SVG Version: 6.00 Build 0)  -->
<svg version="1.1" id="Ebene_1" xmlns="http://www.w3.org/2000/svg" xmlns:xlink="http://www.w3.org/1999/xlink" x="0px" y="0px"
	 viewBox="0 0 31.1 34.7" style="enable-background:new 0 0 31.1 34.7;" xml:space="preserve">
<style type="text/css">
	.st0{fill:#5B6163;}
	.st1{fill:#2E82A0;}
</style>
<g>
	<g id="Page-1_1_">
		<g id="logo_1_">
			<path id="Fill-1_1_" class="st0" d="M24.4,7.1h2.5c0.6,0,1.3,0.6,1.3,1.3v2.5c0,0.6-0.6,1.3-1.3,1.3h-2.5c-0.6,0-1.3-0.6-1.3-1.3
				V8.3C23.2,7.7,23.8,7.1,24.4,7.1"/>
			<path id="Fill-2_1_" class="st0" d="M24.4,23.9h2.5c0.6,0,1.3,0.6,1.3,1.3v2.5c0,0.6-0.6,1.3-1.3,1.3h-2.5
				c-0.6,0-1.3-0.6-1.3-1.3v-2.5C23.2,24.3,23.8,23.9,24.4,23.9"/>
			<path id="Fill-3_1_" class="st1" d="M12.5,0H15c0.6,0,1.3,0.6,1.3,1.3v2.5C16.3,4.4,15.6,5,15,5h-2.5c-0.6,0-1.3-0.6-1.3-1.3V1.1
				C11.2,0.5,11.9,0,12.5,0z M18.5,9.6H21c0.6,0,1.3,0.6,1.3,1.3v2.5c0,0.6-0.6,1.3-1.3,1.3h-2.5c-0.6,0-1.3-0.6-1.3-1.3v-2.5
				C17.2,10.1,17.8,9.6,18.5,9.6z M6.5,29.7H9c0.6,0,1.3,0.6,1.3,1.3v2.5c0,0.6-0.6,1.3-1.3,1.3H6.5c-0.6,0-1.3-0.6-1.3-1.3v-2.5
				C5.3,30.3,5.9,29.7,6.5,29.7z M4.2,17.9h2.5c0.6,0,1.3,0.6,1.3,1.3v2.5c0,0.6-0.6,1.3-1.3,1.3H4.2c-0.6,0-1.3-0.6-1.3-1.3v-2.5
				C2.9,18.4,3.5,17.9,4.2,17.9z M26.8,17.9h2.5c0.6,0,1.3,0.6,1.3,1.3v2.5c0,0.6-0.6,1.3-1.3,1.3h-2.5c-0.6,0-1.3-0.6-1.3-1.3v-2.5
				C25.7,18.4,26.2,17.9,26.8,17.9z M18.5,23.9H21c0.6,0,1.3,0.6,1.3,1.3v2.5c0,0.6-0.6,1.3-1.3,1.3h-2.5c-0.6,0-1.3-0.6-1.3-1.3
				v-2.5C17.2,24.3,17.8,23.9,18.5,23.9z M24.4,29.7h2.5c0.6,0,1.3,0.6,1.3,1.3v2.5c0,0.6-0.6,1.3-1.3,1.3h-2.5
				c-0.6,0-1.3-0.6-1.3-1.3v-2.5C23.2,30.3,23.8,29.7,24.4,29.7L24.4,29.7z"/>
			<path id="Fill-4_1_" class="st0" d="M1.8,7.1h2.5c0.6,0,1.3,0.6,1.3,1.3v2.5c0,0.6-0.6,1.3-1.3,1.3H1.8c-0.6,0-1.3-0.6-1.3-1.3
				V8.3C0.6,7.7,1,7.1,1.8,7.1"/>
			<path id="Fill-5_1_" class="st0" d="M18.5,17.9H21c0.6,0,1.3,0.6,1.3,1.3v2.5c0,0.6-0.6,1.3-1.3,1.3h-2.5c-0.6,0-1.3-0.6-1.3-1.3
				v-2.5C17.2,18.4,17.8,17.9,18.5,17.9"/>
			<path id="Fill-6_1_" class="st0" d="M12.5,15.5H15c0.6,0,1.3,0.6,1.3,1.3v2.5c0,0.6-0.6,1.3-1.3,1.3h-2.5c-0.6,0-1.3-0.6-1.3-1.3
				v-2.5C11.2,16,11.9,15.5,12.5,15.5"/>
			<path id="Fill-7_1_" class="st0" d="M12.5,23.9H15c0.6,0,1.3,0.6,1.3,1.3v2.5c0,0.6-0.6,1.3-1.3,1.3h-2.5c-0.6,0-1.3-0.6-1.3-1.3
				v-2.5C11.2,24.3,11.9,23.9,12.5,23.9"/>
			<path id="Fill-8_1_" class="st0" d="M6.5,23.9H9c0.6,0,1.3,0.6,1.3,1.3v2.5c0,0.6-0.6,1.3-1.3,1.3H6.5c-0.6,0-1.3-0.6-1.3-1.3
				v-2.5C5.3,24.3,5.9,23.9,6.5,23.9"/>
			<path id="Fill-9_1_" class="st0" d="M18.5,29.7H21c0.6,0,1.3,0.6,1.3,1.3v2.5c0,0.6-0.6,1.3-1.3,1.3h-2.5c-0.6,0-1.3-0.6-1.3-1.3
				v-2.5C17.2,30.3,17.8,29.7,18.5,29.7"/>
			<path id="Fill-10_1_" class="st0" d="M12.5,29.7H15c0.6,0,1.3,0.6,1.3,1.3v2.5c0,0.6-0.6,1.3-1.3,1.3h-2.5
				c-0.6,0-1.3-0.6-1.3-1.3v-2.5C11.2,30.3,11.9,29.7,12.5,29.7"/>
		</g>
	</g>
</g>
</svg>
