<?xml version="1.0" encoding="UTF-8"?>
<svg width="35px" height="32px" viewBox="0 0 35 32" version="1.1" xmlns="http://www.w3.org/2000/svg" xmlns:xlink="http://www.w3.org/1999/xlink">
    <!-- Generator: Sketch 43.2 (39069) - http://www.bohemiancoding.com/sketch -->
    <title>verlauf_icon</title>
    <desc>Created with Sketch.</desc>
    <defs></defs>
    <g id="Page-1" stroke="none" stroke-width="1" fill="none" fill-rule="evenodd">
        <g id="Artboard" transform="translate(-26.000000, -386.000000)" fill-rule="nonzero" fill="#FFFFFF">
            <g id="Navigation">
                <g id="verlauf_icon" transform="translate(26.000000, 386.000000)">
                    <path d="M19.0668241,0 C10.5130796,0 3.55474203,7.02046585 3.55474203,15.6496277 L0.907063356,15.6496277 L5.39664241,21.3177942 L9.88664645,15.6496277 L6.53008687,15.6496277 C6.53008687,8.67503881 12.1535354,3.00129846 19.0672491,3.00129846 C25.9801129,3.00129846 31.6044114,8.67503881 31.6044114,15.6496277 C31.6044114,22.6242165 25.9801129,28.2979569 19.0672491,28.2979569 C15.693265,28.2979569 12.5271003,26.9653804 10.1539642,24.5446188 L8.03879623,26.6558179 C10.9754671,29.6498275 14.8917366,31.2992553 19.0668241,31.2992553 C27.6197187,31.2992553 34.5789062,24.2787895 34.5789062,15.6496277 C34.5789062,7.02046585 27.6197187,0 19.0668241,0 Z M17.5793642,7.36047009 L17.5793642,16.3729406 L22.673277,20.467998 L24.5266521,18.1205538 L20.5538591,14.9267435 L20.5538591,7.36047009 L17.5793642,7.36047009 Z" id="Shape"></path>
                </g>
            </g>
        </g>
    </g>
</svg>