<?xml version="1.0" encoding="UTF-8"?>
<svg width="35px" height="36px" viewBox="0 0 35 36" version="1.1" xmlns="http://www.w3.org/2000/svg" xmlns:xlink="http://www.w3.org/1999/xlink">
    <!-- Generator: Sketch 43.2 (39069) - http://www.bohemiancoding.com/sketch -->
    <title>settings_icon</title>
    <desc>Created with Sketch.</desc>
    <defs></defs>
    <g id="Page-1" stroke="none" stroke-width="1" fill="none" fill-rule="evenodd">
        <g id="Artboard" transform="translate(-27.000000, -494.000000)" fill-rule="nonzero" fill="#FFFFFF">
            <g id="Navigation">
                <g id="settings_icon" transform="translate(27.000000, 494.000000)">
                    <g id="Group">
                        <g id="Shape">
                            <path d="M14.244186,0.36216 L13.1376977,5.15685477 C12.6101744,5.33804895 12.0944128,5.55000244 11.5988372,5.79275593 L7.42732558,3.18556116 L2.82340116,7.78948558 L5.43061628,11.9610135 C5.18781395,12.4565891 4.97594186,12.97231 4.79467442,13.499874 L0,14.6063623 L0,21.1179902 L4.79467442,22.2244379 C4.97590116,22.7520019 5.18781395,23.2677635 5.43061628,23.7633391 L2.82340116,27.9348507 L7.42732558,32.5387751 L11.5988372,29.93156 C12.0944128,30.1743216 12.6101744,30.3862751 13.1376977,30.5674612 L14.244186,35.3621763 L20.755814,35.3621763 L21.8623023,30.5674612 C22.3898256,30.3862751 22.9055872,30.1743216 23.4011628,29.93156 L27.5726744,32.5387751 L32.1765988,27.9348507 L29.5693837,23.7633391 C29.812186,23.2677635 30.0240581,22.7520019 30.2053256,22.2244379 L35,21.1179902 L35,14.6063623 L30.2053256,13.499874 C30.0240988,12.97231 29.812186,12.4565891 29.5693837,11.9610135 L32.1765988,7.78948558 L27.5726744,3.18556116 L23.4011628,5.79275593 C22.9055872,5.55000244 22.3898256,5.33804895 21.8623023,5.15685477 L20.755814,0.36216 L14.244186,0.36216 Z M17.5,9.72262512 C21.995343,9.72262512 25.6395349,13.3667926 25.6395349,17.8621763 C25.6395349,22.3574786 21.995343,26.0017112 17.5,26.0017112 C13.004657,26.0017112 9.36046512,22.3574786 9.36046512,17.8621763 C9.36046512,13.3667519 13.004657,9.72262512 17.5,9.72262512 Z"></path>
                        </g>
                    </g>
                </g>
            </g>
        </g>
    </g>
</svg>