<?xml version="1.0" encoding="UTF-8"?>
<svg width="23px" height="38px" viewBox="0 0 23 38" version="1.1" xmlns="http://www.w3.org/2000/svg" xmlns:xlink="http://www.w3.org/1999/xlink">
    <!-- Generator: Sketch 43.2 (39069) - http://www.bohemiancoding.com/sketch -->
    <title>empfehlung_icon</title>
    <desc>Created with Sketch.</desc>
    <defs></defs>
    <g id="Page-1" stroke="none" stroke-width="1" fill="none" fill-rule="evenodd">
        <g id="Artboard" transform="translate(-33.000000, -328.000000)" fill-rule="nonzero" fill="#FFFFFF">
            <g id="Navigation">
                <g id="empfehlung_icon" transform="translate(33.000000, 328.000000)">
                    <g id="Group">
                        <g transform="translate(3.833333, 0.000000)">
                            <rect id="Rectangle-path" x="0.667019627" y="0.756219456" width="13.8306498" height="3.8119678"></rect>
                            <polygon id="Shape" points="0.667019627 6.08818725 0.667019627 10.0054065 7.58232114 15.2874158 14.4976695 10.0054065 14.4976695 6.08818725"></polygon>
                        </g>
                        <path d="M22.6013418,25.0762195 C21.7886769,24.4757897 21.3593455,24.0274157 21.2520009,23.8754065 C21.3133474,23.7233972 21.4973399,23.4422009 21.619986,23.2598083 C22.0033193,22.6745935 22.4403249,22.0133972 22.156662,21.336986 C21.8729991,20.6681823 21.0986582,20.5237805 20.4239878,20.386986 C20.2476694,20.3566027 19.9793548,20.3033971 19.818338,20.2501916 C19.8260122,20.0830138 19.8796845,19.8093786 19.9180084,19.6345934 C20.0483287,18.9581823 20.2016713,18.1981823 19.6880178,17.6889952 C19.450353,17.4457897 19.1130178,17.32421 18.6989878,17.32421 C18.3846751,17.32421 18.055014,17.392584 17.7329803,17.453397 C17.5336863,17.4989952 17.3266713,17.5369859 17.1350046,17.5445933 C17.0890064,17.392584 17.0353342,17.13421 17.0046844,16.9593785 C16.8743174,16.2905748 16.7286488,15.5305748 16.0616526,15.2493785 C15.9159841,15.1886119 15.7626881,15.1581822 15.5939971,15.1581822 C15.0726694,15.1581822 14.5819915,15.4698082 14.1066619,15.7813878 C13.945645,15.8877989 13.6850046,16.0474156 13.5316619,16.123397 C13.4090159,15.99421 13.2403248,15.743397 13.1329803,15.5762193 C12.7343454,14.9910045 12.2896657,14.3298082 11.5460215,14.3298082 C10.8023305,14.3298082 10.3576507,14.9910045 9.96664321,15.5686119 C9.85934545,15.7281822 9.6906544,15.9713878 9.57568254,16.1005748 C9.42233985,16.0322008 9.17700092,15.8649767 9.01598405,15.7662194 C8.54065448,15.4545934 8.05765072,15.1354064 7.52864888,15.1354064 C7.36767886,15.1354064 7.21433617,15.1657897 7.06866759,15.2266027 C6.40167134,15.5077989 6.24832866,16.2754064 6.11800843,16.9518175 C6.08731179,17.1266027 6.03368629,17.3925841 5.98001403,17.5522008 C5.81132306,17.5445933 5.58900652,17.4989952 5.36664328,17.453397 C5.04465639,17.392584 4.70732114,17.32421 4.39300843,17.32421 C3.97897846,17.32421 3.64164328,17.4457896 3.40397846,17.6889952 C2.8903249,18.1981822 3.03599341,18.9505748 3.17398781,19.6193785 C3.20468445,19.79421 3.25830995,20.0601915 3.26598405,20.2198082 C3.11268813,20.2730138 2.85200092,20.3262193 2.67568254,20.3566027 C2.00101211,20.4857897 1.24201963,20.6301916 0.950682537,21.2913878 C0.667019627,21.9677989 1.10397846,22.6366027 1.48731179,23.2293786 C1.59465632,23.3966027 1.76334736,23.6549767 1.83232114,23.8145934 C1.70200092,23.9286119 1.44898781,24.1033971 1.28801779,24.2098082 C0.697669503,24.6049767 0.03067326,25.0533971 0.03067326,25.7830138 C0.03067326,26.5201915 0.6899954,26.9610045 1.28034368,27.3562193 C1.44131371,27.462584 1.68665271,27.6298082 1.8170197,27.7437803 C1.74032498,27.8957896 1.57935488,28.1466026 1.47201035,28.3137803 C1.08867702,28.8989951 0.65167142,29.5601914 0.93533433,30.2366026 C1.21899724,30.9054063 1.98566391,31.0498081 2.66033433,31.1866026 C2.84432682,31.2169859 3.11268829,31.2701915 3.27365831,31.323397 C3.25831003,31.4905748 3.20468453,31.76421 3.17398789,31.9389952 C3.03599348,32.6154063 2.89032498,33.3754063 3.40397853,33.8845934 C3.64164336,34.1277989 3.9713512,34.2418175 4.39300851,34.2418175 C4.69964712,34.2418175 5.03698229,34.1810045 5.35134184,34.1201915 C5.55831003,34.0745933 5.76532498,34.0366026 5.95699164,34.0289952 C6.0029898,34.1810045 6.04898789,34.4393785 6.08731187,34.61421 C6.21000475,35.2830138 6.35567326,36.0430138 7.0226695,36.32421 C7.16833801,36.3849767 7.32935488,36.4154063 7.49032498,36.4154063 C8.01932682,36.4154063 8.51000475,36.1037803 8.97766015,35.7922008 C9.14635112,35.6857897 9.39931746,35.5262193 9.56033433,35.4501915 C9.67535304,35.5793785 9.84399724,35.8301915 9.95901595,35.9974156 C10.3499766,36.582584 10.8023306,37.2437803 11.5460215,37.2437803 C12.2819916,37.2437803 12.7266713,36.582584 13.125353,36.0049766 C13.2326508,35.8454063 13.3936677,35.6022007 13.5086864,35.4730137 C13.6696564,35.5413877 13.9149954,35.7086119 14.0760122,35.8074155 C14.5436677,36.1189951 15.0343455,36.4381821 15.5556733,36.4381821 C15.7166433,36.4381821 15.869986,36.4077989 16.0156546,36.3469859 C16.690325,36.0657896 16.8359935,35.2981821 16.9739879,34.6218174 C17.0046845,34.4469859 17.05831,34.1810044 17.1119823,34.0213877 C17.2729992,34.0289951 17.5029898,34.0745932 17.725353,34.1201914 C18.0473399,34.1810044 18.377001,34.2493784 18.6913137,34.2493784 C19.1130178,34.2493784 19.450353,34.1277989 19.6880178,33.8845932 C20.2016713,33.3754062 20.0483287,32.6230137 19.9180084,31.95421 C19.8796845,31.7793784 19.8336863,31.513397 19.818338,31.3537802 C19.9793549,31.3005747 20.2399953,31.2474155 20.4086863,31.2169858 C21.0833099,31.0877988 21.8499765,30.9433969 22.1336863,30.2822006 C22.4249765,29.6057895 21.9880178,28.9369858 21.6046845,28.3442099 C21.4896657,28.1618173 21.3056733,27.8805746 21.2443268,27.7286117 C21.3670197,27.5310043 21.8039785,27.0901913 22.6013418,26.4974154 C22.8313324,26.3301913 22.9693268,26.0642099 22.9693268,25.7830136 C22.9693268,25.5093786 22.8313324,25.2433972 22.6013418,25.0762195 Z M11.4539785,30.8901916 C8.68632298,30.8901916 6.43232114,28.6481824 6.43232114,25.9045935 C6.43232114,23.1533972 8.68632298,20.9189953 11.4539785,20.9189953 C14.2293549,20.9189953 16.48331,23.1533971 16.48331,25.9045935 C16.48331,28.6481824 14.2293549,30.8901916 11.4539785,30.8901916 Z" id="Shape"></path>
                    </g>
                </g>
            </g>
        </g>
    </g>
</svg>