<?xml version="1.0" encoding="UTF-8"?>
<svg width="174px" height="29px" viewBox="0 0 174 29" version="1.1" xmlns="http://www.w3.org/2000/svg" xmlns:xlink="http://www.w3.org/1999/xlink">
    <!-- Generator: Sketch 43.2 (39069) - http://www.bohemiancoding.com/sketch -->
    <title>Logo_AOK_PLUS</title>
    <desc>Created with Sketch.</desc>
    <defs></defs>
    <g id="Page-1" stroke="none" stroke-width="1" fill="none" fill-rule="evenodd">
        <g id="Artboard" transform="translate(-40.000000, -706.000000)">
            <g id="Navigation">
                <g id="Logo_AOK_PLUS" transform="translate(40.000000, 706.000000)">
                    <path d="M85.8451327,1.89271255 L85.8451327,28.1072874" id="Line" stroke="#FFFFFF" stroke-linecap="square"></path>
                    <g id="PLUS" transform="translate(99.882794, 10.822281)" fill-rule="nonzero" fill="#FFFFFF">
                        <path d="M10.6288912,8.26059856 C12.6546751,8.26059856 13.0672137,7.18428433 13.0672137,5.5392084 C13.0672137,3.94314189 12.4095984,3.02416264 10.5947239,3.02416264 L3.35020013,3.02416264 L3.35020013,8.2608089 L10.6288912,8.2608089 L10.6288912,8.26059856 Z M0.137418675,0.369871214 L10.8239823,0.369871214 C14.4393896,0.369871214 16.2517333,2.35906481 16.2517333,5.51628125 C16.2517333,9.23679053 14.5056151,10.8482119 10.7877059,10.8482119 L3.35020013,10.8482119 L3.32805465,16.6744436 L0.137418675,16.6744436 L0.137418675,0.369871214 Z" id="Shape"></path>
                        <polygon id="Shape" points="19.9112206 0.42203575 23.2104749 0.42203575 23.2104749 13.9968044 31.7141272 13.9968044 31.7141272 16.683278 19.9112206 16.683278"></polygon>
                        <path d="M35.4902474,12.227417 L35.4902474,0.42203575 L38.8095381,0.42203575 L38.8095381,11.6075425 C38.8095381,13.6080945 40.314376,14.2468997 43.9255651,14.2468997 C47.5591106,14.2468997 49.0293594,13.7109511 49.0293594,11.6416177 L49.0293594,0.42203575 L52.2259008,0.42203575 L52.2259008,12.1941831 C52.2259008,15.9170062 49.0272503,16.9205425 43.890976,16.9205425 C38.7753708,16.9203321 35.4902474,16.0013529 35.4902474,12.227417" id="Shape"></path>
                        <path d="M56.5172725,15.9088029 L57.0424366,13.2153881 C58.6375437,13.7351403 62.0998309,14.1955765 64.4396587,14.1955765 C68.6198811,14.1955765 69.9277297,13.8291627 70.1449663,11.8174626 C70.3096865,10.2624126 68.945736,9.58700808 64.4111859,9.58700808 C58.7963584,9.58700808 56.6803053,8.1733071 56.6803053,4.97633624 C56.6803053,0.904347361 59.7241484,0.10484172 64.5942552,0.10484172 C68.155037,0.10484172 71.4684222,0.580632765 72.6493034,0.908343838 L72.1199211,3.51173277 C70.6355414,3.21157635 67.2618361,2.72884406 64.5980516,2.72884406 C60.501982,2.72884406 59.7941703,3.32495008 59.7941703,4.8814725 C59.7941703,6.13236965 60.7799604,6.76339226 65.3145105,6.9339787 C72.5366779,7.20721149 73.4461188,9.12846498 73.150213,12.0683993 C72.7777472,15.7481025 70.6593741,16.9186494 64.8355355,16.9186494 C59.9814578,16.9188597 57.5011644,16.163736 56.5172725,15.9088029" id="Shape"></path>
                    </g>
                    <g id="AOK" transform="translate(0.468925, 0.096520)" fill-rule="nonzero" fill="#FFFFFF">
                        <path d="M21.4309164,17.3827797 L21.4290182,5.91920238 L11.671721,18.3728542 L21.4307055,18.3728542 L21.4307055,17.3827797 L21.4309164,17.3827797 Z M9.44093325,21.2185558 L4.14394604,27.9839595 L0.192771105,27.9839595 L21.4349236,0.862397561 L24.5675596,0.865342333 L24.5675596,27.9900594 L21.4311273,27.9900594 L21.4311273,21.2187661 L9.44093325,21.2187661 L9.44093325,21.2185558 Z M61.4895535,13.1179083 L74.8818726,27.9698667 L70.5506391,27.9698667 L58.7996162,15.0839644 L58.7996162,27.987956 L55.6431476,27.987956 L55.6431476,0.865342333 L58.7774708,0.865342333 L58.7774708,11.4722013 L70.1882969,0.811074389 L74.5058213,0.811074389 L61.4895535,13.1179083 Z M40.1908773,6.06475826 L38.531232,7.8215252 C38.3924536,7.96518801 38.2718135,8.12757116 38.1752171,8.30615056 C37.9961551,8.63154788 37.8936531,9.0032202 37.8936531,9.4016058 C37.8936531,10.6647027 38.9197269,11.6878007 40.1872918,11.6878007 C41.4504277,11.6878007 42.4765014,10.6647027 42.4765014,9.4016058 C42.4765014,9.0032202 42.3777959,8.63154788 42.1968357,8.30615056 C42.1002392,8.12757116 41.97981,7.96497767 41.8408208,7.8215252 L40.1908773,6.06475826 Z M31.745436,12.4067458 L32.4576767,14.7160782 C32.5118804,14.9079091 32.596455,15.092378 32.7008551,15.2646472 C32.8982662,15.5784758 33.1737138,15.8527602 33.5177069,16.0490083 C34.6205516,16.6722483 36.0203567,16.2898486 36.6440155,15.1903968 C37.2695725,14.0959933 36.8857176,12.7003816 35.7849819,12.0754589 C35.4388797,11.8787902 35.0628284,11.7816127 34.6926826,11.7776163 C34.4874678,11.7731991 34.2883695,11.7965469 34.0930674,11.8455564 L31.745436,12.4067458 Z M49.5776069,11.836091 L48.5878095,15.0492581 C48.356442,15.7393865 47.8757797,16.3495854 47.1920117,16.7376643 C45.8537922,17.4974155 44.1884523,17.1526668 43.2549677,15.9941093 L40.5209504,17.5552592 L40.5209504,21.2128766 L47.4853865,21.2128766 L46.8435895,21.9663176 L33.4470522,21.9663176 L32.8052552,21.2128766 L39.768215,21.2128766 L39.768215,17.5552592 L37.0523359,16.004416 C36.1186404,17.1547702 34.4611042,17.4978362 33.1254156,16.7376643 C32.4395385,16.3491647 31.9605635,15.7393865 31.7272978,15.0492581 L30.7393986,11.836091 L34.0084928,11.0517299 C34.7247408,10.8990224 35.4951925,10.997462 36.1791714,11.3857512 C37.5897328,12.1850465 38.1286061,13.9258275 37.45454,15.3651901 L39.768426,16.6884445 L39.768426,12.4561759 C38.2612681,12.253197 37.098736,10.9654902 37.098736,9.40349887 C37.098736,8.61703436 37.3925326,7.899772 37.8793113,7.35498915 L40.1908773,4.90830417 L42.4923196,7.35498915 C42.9793092,7.899772 43.272895,8.61703436 43.272895,9.40349887 C43.272895,10.989469 42.0698683,12.2984202 40.5205285,12.4660619 L40.5205285,16.6884445 L42.8561382,15.3553041 C42.1902975,13.918676 42.7291708,12.1850465 44.1376231,11.3855409 C44.8235002,10.9970413 45.5939519,10.8990224 46.3061926,11.0515196 L49.5776069,11.836091 Z M46.2241489,11.8461874 C46.0288469,11.797178 45.8257412,11.7738301 45.6266428,11.7782473 C45.2543879,11.7822438 44.8781257,11.8794212 44.5303363,12.0760899 C43.4298115,12.7010127 43.0478547,14.0962037 43.6715136,15.1910279 C44.2970706,16.2904796 45.6972974,16.6728793 46.7997204,16.0496393 C47.1458226,15.8531809 47.4193719,15.5793171 47.6165721,15.2652782 C47.7211831,15.093009 47.8015396,14.9085401 47.8618597,14.7167092 L48.5696713,12.4073768 L46.2241489,11.8461874 Z M40.1465863,25.4981511 C46.2905853,25.4981511 51.2716304,20.5284274 51.2716304,14.4022496 C51.2716304,8.27375807 46.2905853,3.30529641 40.1465863,3.30529641 C34.0025874,3.30529641 29.0215423,8.27375807 29.0215423,14.4022496 C29.0215423,20.5284274 34.0025874,25.4981511 40.1465863,25.4981511 L40.1465863,25.4981511 Z M25.8950227,14.4022496 C25.8950227,6.55148703 32.2722874,0.189096441 40.1463754,0.189096441 C48.014558,0.189096441 54.3958299,6.55148703 54.3958299,14.4022496 C54.3958299,22.2504881 48.014558,28.6132994 40.1463754,28.6132994 C32.2724983,28.6128787 25.8950227,22.2500674 25.8950227,14.4022496 L25.8950227,14.4022496 Z" id="Shape"></path>
                    </g>
                </g>
            </g>
        </g>
    </g>
</svg>