<?xml version="1.0" encoding="UTF-8"?>
<svg width="206px" height="231px" viewBox="0 0 206 231" version="1.1" xmlns="http://www.w3.org/2000/svg" xmlns:xlink="http://www.w3.org/1999/xlink">
    <!-- Generator: Sketch 43.2 (39069) - http://www.bohemiancoding.com/sketch -->
    <title>Logo_AOK_PLUS</title>
    <desc>Created with Sketch.</desc>
    <defs></defs>
    <g id="Page-1" stroke="none" stroke-width="1" fill="none" fill-rule="evenodd">
        <g id="Artboard" transform="translate(-62.000000, 0.000000)" fill-rule="nonzero">
            <g id="Navigation">
                <g id="Logo_AOK_PLUS" transform="translate(62.000000, 0.000000)">
                    <g id="Ebene_1">
                        <rect id="Rectangle-path" fill="#0A9146" x="0" y="0" width="205.687377" height="230.959661"></rect>
                        <path d="M59.3894204,176.540199 C62.7037085,176.540199 63.3786432,174.775979 63.3786432,172.079485 C63.3786432,169.463324 62.3027504,167.956997 59.3335209,167.956997 L47.4811022,167.956997 L47.4811022,176.540543 L59.3894204,176.540543 L59.3894204,176.540199 Z M42.2248241,163.606267 L59.7085997,163.606267 C65.6235946,163.606267 68.5886834,166.866815 68.5886834,172.041904 C68.5886834,178.140304 65.731943,180.781634 59.6492496,180.781634 L47.4811022,180.781634 L47.444871,190.331588 L42.2248241,190.331588 L42.2248241,163.606267 Z" id="Shape" fill="#FFFFFF"></path>
                        <polygon id="Shape" fill="#FFFFFF" points="74.5757956 163.691772 79.9735477 163.691772 79.9735477 185.942588 93.8859665 185.942588 93.8859665 190.346069 74.5757956 190.346069"></polygon>
                        <g id="Group" transform="translate(40.026801, 95.158209)" fill="#FFFFFF">
                            <path d="M60.0370955,87.8841224 L60.0370955,68.5335627 L65.4676281,68.5335627 L65.4676281,86.8680672 C65.4676281,90.1472328 67.9296214,91.1943179 73.8377152,91.1943179 C79.7823853,91.1943179 82.1877889,90.3158284 82.1877889,86.9239209 L82.1877889,68.5335627 L87.4174975,68.5335627 L87.4174975,87.8296478 C87.4174975,93.9318403 82.1843384,95.5767672 73.7811256,95.5767672 C65.4117286,95.5764224 60.0370955,94.0700955 60.0370955,87.8841224" id="Shape"></path>
                            <path d="M94.4384054,93.918394 L95.2976013,89.5035358 C97.9072797,90.3554776 103.571762,91.1101925 107.399843,91.1101925 C114.238905,91.1101925 116.378613,90.5095925 116.734023,87.2121537 C117.003514,84.6632239 114.77202,83.5561478 107.35326,83.5561478 C98.1671089,83.5561478 94.7051357,81.2389075 94.7051357,75.9986552 C94.7051357,69.3241343 99.6850218,68.0136403 107.652771,68.0136403 C113.478395,68.0136403 118.899266,68.7935239 120.83125,69.3306851 L119.965152,73.5979791 C117.53663,73.1059836 112.017072,72.3147224 107.658982,72.3147224 C100.957598,72.3147224 99.7995812,73.2918179 99.7995812,75.8431612 C99.7995812,77.8935448 101.412385,78.9278731 108.831146,79.2074866 C120.646988,79.6553507 122.134881,82.8045358 121.650764,87.6234716 C121.04139,93.6549851 117.575621,95.5736642 108.047518,95.5736642 C100.105993,95.574009 96.0481039,94.3362627 94.4384054,93.918394" id="Shape"></path>
                            <path d="M35.0620972,28.4926433 L35.0589916,9.70234478 L19.0955444,30.1155045 L35.0617521,30.1155045 L35.0617521,28.4926433 L35.0620972,28.4926433 Z M15.4458593,34.7799806 L6.77971189,45.8693597 L0.315383585,45.8693597 L35.0686533,1.41358209 L40.193809,1.41840896 L40.193809,45.8793582 L35.0624422,45.8793582 L35.0624422,34.7803254 L15.4458593,34.7803254 L15.4458593,34.7799806 Z M100.600117,21.5019627 L122.51065,45.8462597 L115.424526,45.8462597 L96.1992395,24.7245851 L96.1992395,45.8759104 L91.0350921,45.8759104 L91.0350921,1.41840896 L96.1630084,1.41840896 L96.1630084,18.8044343 L114.831715,1.32945672 L121.89541,1.32945672 L100.600117,21.5019627 Z M65.7543719,9.94092985 L63.0391055,12.8205 C62.812057,13.0559821 62.6146834,13.3221493 62.4566466,13.6148642 C62.1636918,14.1482328 61.9959933,14.7574522 61.9959933,15.4104582 C61.9959933,17.4808388 63.6747035,19.1578299 65.7485059,19.1578299 C67.815062,19.1578299 69.4937722,17.4808388 69.4937722,15.4104582 C69.4937722,14.7574522 69.3322848,14.1482328 69.0362245,13.6148642 C68.8781876,13.3221493 68.6811591,13.0556373 68.4537655,12.8205 L65.7543719,9.94092985 Z M51.9371893,20.3362746 L53.1024523,24.1215716 C53.1911323,24.4360075 53.3295008,24.7383761 53.5003049,25.0207478 C53.8232797,25.5351537 54.2739263,25.9847418 54.8367169,26.3064179 C56.6410285,27.3279896 58.9311826,26.7011866 59.9515209,24.8990418 C60.9749648,23.1051716 60.3469581,20.8175821 58.5460972,19.7932522 C57.9798559,19.4708866 57.3646164,19.3116 56.7590385,19.3050493 C56.4232965,19.297809 56.0975611,19.3360791 55.7780369,19.4164119 L51.9371893,20.3362746 Z M81.1115511,19.400897 L79.492191,24.667697 C79.1136616,25.7989075 78.327273,26.799103 77.208593,27.4352149 C75.019196,28.6805463 72.2946131,28.1154582 70.7673836,26.2164313 L66.2943886,28.7753597 L66.2943886,34.7706716 L77.6885695,34.7706716 L76.6385561,36.0056597 L54.7211223,36.0056597 L53.6711089,34.7706716 L65.0628744,34.7706716 L65.0628744,28.7753597 L60.6195544,26.2333254 C59.0919799,28.118906 56.3801642,28.6812358 54.1949079,27.4352149 C53.0727772,26.7984134 52.2891491,25.7989075 51.9075142,24.667697 L50.2912596,19.400897 L55.6396683,18.1152269 C56.8114874,17.8649194 58.0719866,18.0262746 59.1910117,18.6627313 C61.4987638,19.9728806 62.3803886,22.8262478 61.2775812,25.1855507 L65.0632194,27.3545373 L65.0632194,20.417297 C62.5974305,20.0845881 60.6954673,17.9738687 60.6954673,15.4135612 C60.6954673,14.1244433 61.176134,12.9487567 61.9725293,12.0557866 L65.7543719,8.04535075 L69.5196516,12.0557866 C70.316392,12.9487567 70.7967136,14.1244433 70.7967136,15.4135612 C70.7967136,18.0131731 68.8284992,20.1587149 66.2936985,20.4335015 L66.2936985,27.3545373 L70.1148777,25.1693463 C69.0255276,22.8145254 69.9071524,19.9728806 72.2114539,18.6623866 C73.3335846,18.0255851 74.5940838,17.8649194 75.7593467,18.1148821 L81.1115511,19.400897 Z M75.6251189,19.4174463 C75.3055946,19.3371134 74.9733032,19.2988433 74.6475678,19.3060836 C74.0385394,19.3126343 73.4229548,19.4719209 72.8539531,19.7942866 C71.0534372,20.8186164 70.428536,23.1055164 71.4488744,24.9000761 C72.4723183,26.7022209 74.7631625,27.3290239 76.5667839,26.3074522 C77.1330251,25.9854313 77.5805662,25.5365328 77.903196,25.0217821 C78.0743451,24.7394104 78.2058124,24.4370418 78.3044992,24.122606 L79.4625159,20.337309 L75.6251189,19.4174463 Z M65.6819095,41.7947955 C75.7338124,41.7947955 83.883062,33.6487701 83.883062,23.6071657 C83.883062,13.5617687 75.7338124,5.41781194 65.6819095,5.41781194 C55.6300067,5.41781194 47.4807571,13.5617687 47.4807571,23.6071657 C47.4807571,33.6487701 55.6300067,41.7947955 65.6819095,41.7947955 L65.6819095,41.7947955 Z M42.365608,23.6071657 C42.365608,10.7387418 52.7991457,0.309953731 65.6815645,0.309953731 C78.5543216,0.309953731 88.9944154,10.7387418 88.9944154,23.6071657 C88.9944154,36.4714522 78.5543216,46.9009299 65.6815645,46.9009299 C52.7994908,46.9002403 42.365608,36.4707627 42.365608,23.6071657 L42.365608,23.6071657 Z" id="Shape"></path>
                        </g>
                        <rect id="Rectangle-path" fill="#FFFFFF" x="38.7787236" y="150.905404" width="125.371531" height="1.96005224"></rect>
                    </g>
                </g>
            </g>
        </g>
    </g>
</svg>