<?xml version="1.0" encoding="UTF-8"?>
<svg width="106px" height="20px" viewBox="0 0 106 20" version="1.1" xmlns="http://www.w3.org/2000/svg" xmlns:xlink="http://www.w3.org/1999/xlink">
    <!-- Generator: Sketch 43.2 (39069) - http://www.bohemiancoding.com/sketch -->
    <title>Loop One</title>
    <desc>Created with Sketch.</desc>
    <defs>
        <polygon id="path-1" points="0.00328512397 19.9999448 0.00328512397 0.000828729282 10.2466849 0.000828729282 20.4900847 0.000828729282 20.4900847 19.9999448 0.00328512397 19.9999448"></polygon>
    </defs>
    <g id="Page-1" stroke="none" stroke-width="1" fill="none" fill-rule="evenodd">
        <g id="Artboard" transform="translate(-563.000000, -1144.000000)">
            <g id="Navigation">
                <g id="Loop-One" transform="translate(563.000000, 1144.000000)">
                    <g id="Group-4">
                        <mask id="mask-2" fill="white">
                            <use xlink:href="#path-1"></use>
                        </mask>
                        <g id="Clip-2"></g>
                        <path d="M2.45968182,19.689779 C1.9715124,19.4829282 1.54691012,19.2022099 1.18592975,18.8476796 C0.824456612,18.4930939 0.536625,18.0793923 0.322051653,17.6066298 C0.107095041,17.1338674 0,16.6219337 0,16.0701657 L0,7.05801105 C0,6.66414365 0.136277893,6.32950276 0.409928719,6.05342541 C0.683086777,5.77779006 1.01477479,5.63972376 1.40554029,5.63972376 C1.77615702,5.63972376 2.10330062,5.77779006 2.38647831,6.05342541 C2.66927273,6.32950276 2.81108058,6.66414365 2.81108058,7.05801105 L2.81108058,16.0701657 C2.81108058,16.3656354 2.92315806,16.6219337 3.14780579,16.8383978 C3.37196074,17.0554144 3.63099277,17.1634807 3.92380682,17.1634807 L14.2454473,17.1634807 C14.63572,17.1634807 14.9674628,17.3014917 15.2410041,17.5771823 C15.5141622,17.8532044 15.6509876,18.1879006 15.6509876,18.5817127 C15.6509876,18.9760221 15.5141622,19.3107735 15.2410041,19.5863536 C14.9674628,19.8624862 14.63572,19.9999448 14.2454473,19.9999448 L4.01162913,19.9999448 C3.46482025,19.9999448 2.94741322,19.8966298 2.45968182,19.689779" id="Fill-1" fill="#121513" mask="url(#mask-2)"></path>
                        <path d="M18.0304029,0.311104972 C18.5185723,0.517900552 18.9431746,0.798618785 19.3042097,1.15314917 C19.6656281,1.50773481 19.9534597,1.92143646 20.1679783,2.39425414 C20.3830444,2.86696133 20.4900847,3.37900552 20.4900847,3.93066298 L20.4900847,12.9428177 C20.4900847,13.3366298 20.3538068,13.6713812 20.0801012,13.9474033 C19.8070527,14.2230387 19.4753647,14.361105 19.0845444,14.361105 C18.7139824,14.361105 18.3868388,14.2230387 18.1035517,13.9474033 C17.820812,13.6713812 17.6790041,13.3366298 17.6790041,12.9428177 L17.6790041,3.93066298 C17.6790041,3.63524862 17.5669267,3.37900552 17.3422789,3.16243094 C17.1180692,2.94541436 16.8590919,2.83740331 16.5662779,2.83740331 L12.4353988,2.83740331 C12.045126,2.83740331 11.713438,2.69939227 11.4397872,2.42370166 C11.1666839,2.14762431 11.0298585,1.81292818 11.0298585,1.41911602 C11.0298585,1.02480663 11.1666839,0.690110497 11.4397872,0.41441989 C11.713438,0.13839779 12.045126,0.000828729282 12.4353988,0.000828729282 L16.4785103,0.000828729282 C17.0252645,0.000828729282 17.5426715,0.104309392 18.0304029,0.311104972" id="Fill-3" fill="#238297" mask="url(#mask-2)"></path>
                    </g>
                    <path d="M37.9041436,13.508232 C37.8974091,13.5071823 37.8912221,13.5064641 37.8851994,13.5058564 L37.8217965,13.5058564 L37.8196612,13.5061326 L37.3658213,13.5061326 L37.3664236,13.5058564 L31.7025961,13.5058564 C31.1788926,13.5058564 30.752812,13.0760221 30.752812,12.5475138 L30.752812,5.96707182 L30.7496911,5.96950276 L30.7496911,5.79187845 C30.7496911,5.56828729 30.6190527,5.42624309 30.36128,5.36950276 L29.8690589,5.36950276 C29.5892758,5.42657459 29.5056694,5.57662983 29.4856849,5.69552486 L29.4856849,12.5475138 C29.4856849,13.148011 29.7154793,13.7105525 30.1327448,14.1316575 C30.5500103,14.5526519 31.1074959,14.7845856 31.7025961,14.7845856 L37.8194969,14.7845856 C38.0403667,14.7829282 38.1804225,14.648232 38.2350651,14.3844199 C38.2400475,14.3601105 38.2440992,14.3350829 38.2477676,14.3058564 L38.2477676,13.9945856 C38.2442087,13.960884 38.2398285,13.9303315 38.2347366,13.9039227 C38.178561,13.6104972 38.0239411,13.5267403 37.9041436,13.508232" id="Fill-13" fill="#121513"></path>
                    <path d="M69.2093492,8.47928177 C69.2093492,9.00779006 68.7833781,9.43767956 68.2599483,9.43767956 L62.0368285,9.43767956 L62.0368285,6.63464088 L68.2599483,6.63464088 C68.7833781,6.63464088 69.2093492,7.07066298 69.2093492,7.60651934 L69.2093492,8.47928177 Z M68.2599483,5.36950276 L61.8451963,5.36950276 L61.4860227,5.36972376 C60.937407,5.36972376 60.7934091,5.69165746 60.7698657,5.96342541 L60.7698657,14.1616022 L60.7704132,14.3380663 L60.7704132,14.3439779 C60.7720558,14.5675691 60.9056508,14.7089503 61.1673657,14.7641436 C61.1925517,14.7694475 61.2193802,14.7737569 61.2500413,14.7776243 C61.2768698,14.780884 61.3042459,14.7832044 61.3305269,14.7845856 L61.4236054,14.7845856 C61.4685021,14.7837569 61.5112087,14.7812707 61.5489876,14.7774033 C61.5840289,14.7737017 61.6157851,14.7691713 61.6431612,14.7638122 C61.9338946,14.7071271 62.0171178,14.5509945 62.035186,14.4301657 C62.036281,14.4251934 62.0368285,14.420663 62.0368285,14.4161878 L62.0368285,10.7163536 L68.2599483,10.7163536 C69.4748967,10.7163536 70.463719,9.71281768 70.463719,8.47928177 L70.463719,7.60651934 C70.463719,7.00674033 70.2343079,6.44403315 69.8181921,6.02237569 C69.402624,5.60132597 68.8490806,5.36950276 68.2599483,5.36950276 L68.2599483,5.36950276 Z" id="Fill-18" fill="#121513"></path>
                    <path d="M40.2213058,7.60651934 C40.2213058,7.3118232 40.3504112,7.04745856 40.5534866,6.86906077 C40.7178523,6.73198895 40.9284287,6.64955801 41.1577851,6.64955801 L46.4307376,6.64955801 C46.9544959,6.64955801 47.3806312,7.07944751 47.3806312,7.6079558 L47.3806312,12.548895 C47.3806312,12.8444199 47.2509236,13.1093923 47.0468626,13.2877348 C46.8828254,13.4240331 46.6727965,13.5058564 46.4442614,13.5058564 L41.1711446,13.5058564 C40.6473864,13.5058564 40.2213058,13.0760221 40.2213058,12.5475138 L40.2213058,7.60651934 Z M48.2480682,13.8348619 C48.2582521,13.8202762 48.2688192,13.8058011 48.2786746,13.790884 C48.2807004,13.7878453 48.2825072,13.7845856 48.2845331,13.7816022 C48.4415072,13.541105 48.5503543,13.2728729 48.6055444,12.988895 C48.6060372,12.9862431 48.6064205,12.9835359 48.6069132,12.980884 C48.6132097,12.948011 48.6189587,12.9148619 48.6237769,12.8814365 C48.6397645,12.7719337 48.6479225,12.6603867 48.6479225,12.5475138 L48.6479225,7.60651934 C48.6479225,7.53303867 48.6440351,7.46022099 48.6373006,7.38812155 C48.6371364,7.38690608 48.6370269,7.38563536 48.6369721,7.38430939 C48.6337417,7.35071823 48.6295258,7.31729282 48.6248719,7.2840884 C48.6243244,7.28022099 48.6238864,7.27635359 48.6233388,7.27259669 C48.6187944,7.24143646 48.613374,7.21060773 48.6075702,7.17983425 C48.606311,7.17348066 48.6052707,7.16701657 48.6040114,7.16071823 C48.5984814,7.13254144 48.5921849,7.10453039 48.5855052,7.07657459 C48.5832603,7.06712707 48.5810702,7.05767956 48.5786612,7.04823204 C48.5724194,7.02348066 48.5656849,6.99889503 48.5585671,6.97441989 C48.5547893,6.96104972 48.5507924,6.9478453 48.5467407,6.93458564 C48.54028,6.91375691 48.5336002,6.89309392 48.5265372,6.87243094 C48.5205692,6.85497238 48.5142727,6.83762431 48.5079215,6.82033149 C48.5016798,6.80353591 48.495438,6.78679558 48.488813,6.77016575 C48.480436,6.74906077 48.4716209,6.7281768 48.4625868,6.70734807 C48.4585351,6.6979558 48.455031,6.68850829 48.4508698,6.67922652 L48.4504866,6.67961326 C48.3421322,6.4381768 48.1911808,6.21618785 48.0005888,6.0238674 C47.7810331,5.80226519 47.5223295,5.63370166 47.2400279,5.52314917 L47.2424917,5.52060773 C46.9880041,5.42033149 46.7201023,5.36950276 46.4442614,5.36950276 L41.1711446,5.36950276 C41.0584649,5.36950276 40.9472087,5.37790055 40.8379783,5.3941989 C40.3703409,5.46248619 39.9391136,5.67994475 39.5997603,6.02370166 C39.5744101,6.04939227 39.5497169,6.07574586 39.5257355,6.10248619 C39.5255713,6.10265193 39.5253523,6.10287293 39.525188,6.10309392 C39.5136353,6.11596685 39.5026849,6.12933702 39.4914607,6.14248619 C39.1442231,6.54767956 38.9541787,7.06127072 38.9541787,7.60651934 L38.9541787,12.5475138 C38.9541787,12.5478453 38.9542335,12.5480663 38.9542335,12.5482873 L38.9542335,12.548895 C38.9542335,12.8074033 38.9965568,13.0577901 39.0796705,13.2961878 C39.0808202,13.2994475 39.081751,13.3028729 39.0829008,13.3060221 C39.0917707,13.3310497 39.1015165,13.3558011 39.1112076,13.3805525 C39.1150403,13.3902762 39.1185992,13.4001657 39.1225413,13.4098895 C39.1236364,13.4124309 39.1245124,13.4150276 39.1255527,13.4176243 L39.1258264,13.4173481 C39.2353306,13.681547 39.3953161,13.9238674 39.6012386,14.1316575 C39.8052996,14.3374586 40.0430331,14.4978453 40.3021198,14.608232 L40.2997655,14.610663 C40.571062,14.7270166 40.8592221,14.7859116 41.1577851,14.7859116 L46.4307376,14.7859116 C46.5431983,14.7859116 46.6542903,14.7776243 46.7634112,14.761326 C47.2313771,14.6932044 47.6628781,14.4756906 48.0023409,14.131768 C48.0783915,14.0546961 48.1480362,13.9728177 48.211439,13.8869613 C48.2126436,13.8852486 48.2140671,13.8835359 48.2153812,13.881768 C48.2267149,13.8664641 48.2372273,13.8505525 48.2480682,13.8348619 L48.2480682,13.8348619 Z" id="Fill-19" fill="#121513"></path>
                    <path d="M51.1292862,7.60651934 C51.1292862,7.31099448 51.2591581,7.0460221 51.4632738,6.86762431 C51.627311,6.73143646 51.8371756,6.64955801 52.0657655,6.64955801 L57.3385537,6.64955801 C57.862531,6.64955801 58.2885021,7.07944751 58.2885021,7.6079558 L58.2885021,12.548895 C58.2885021,12.8429834 58.1603822,13.1067403 57.9577996,13.2851381 C57.7929959,13.4229282 57.5822004,13.5058564 57.3522417,13.5058564 L52.0792345,13.5058564 C51.5554762,13.5058564 51.1292862,13.0760221 51.1292862,12.5475138 L51.1292862,7.60651934 Z M59.0128719,14.0195028 C59.3638326,13.6133702 59.5554649,13.0971271 59.5554649,12.548895 L59.5554649,7.6079558 C59.5554649,7.57027624 59.5549174,7.53281768 59.5527273,7.49541436 C59.5428719,7.2779558 59.5018079,7.06685083 59.4317252,6.8641989 C59.4300826,6.85911602 59.4284401,6.85392265 59.4267975,6.84889503 C59.4185847,6.82513812 59.4092769,6.80160221 59.399969,6.77812155 C59.3955888,6.76718232 59.3917562,6.7561326 59.387376,6.74524862 C59.386281,6.74281768 59.385186,6.74033149 59.3840909,6.7378453 L59.3840909,6.73812155 C59.2745868,6.47392265 59.1147107,6.23160221 58.908843,6.0238674 C58.7046178,5.81801105 58.4669938,5.65767956 58.207469,5.54723757 L58.2102066,5.54480663 C57.9386364,5.42845304 57.6506405,5.36950276 57.3522417,5.36950276 L52.0792345,5.36950276 C51.9667738,5.36950276 51.8556818,5.37790055 51.746561,5.39414365 C51.2787045,5.46226519 50.8471488,5.67977901 50.5076312,6.02370166 C50.4306498,6.10171271 50.3601839,6.18458564 50.2961787,6.27160221 C50.295686,6.27226519 50.2951932,6.27292818 50.2947004,6.27359116 C50.2827097,6.29 50.2714308,6.30685083 50.2598781,6.32342541 C50.250406,6.33718232 50.2405506,6.35060773 50.231407,6.36447514 C50.2287789,6.36845304 50.2263698,6.37265193 50.2237965,6.37662983 C50.0677531,6.61635359 49.9593988,6.88364641 49.9044277,7.16651934 C49.9030589,7.1738674 49.9020186,7.18132597 49.9007045,7.18878453 C49.8955031,7.21701657 49.8903564,7.24541436 49.8861952,7.27392265 C49.8702624,7.38348066 49.8621043,7.49508287 49.8621043,7.6079558 L49.8621043,12.548895 C49.8621043,12.6224862 49.8659917,12.6953039 49.8727262,12.7672928 C49.8728905,12.7686188 49.8728905,12.7698895 49.8731095,12.7711602 C49.8762851,12.8047514 49.8804463,12.8381768 49.885155,12.8714365 C49.8857025,12.8753039 49.8860857,12.879116 49.886688,12.8828729 C49.8912324,12.9140331 49.8966529,12.9450276 49.9024566,12.9758011 C49.9036612,12.9820994 49.9047014,12.988453 49.9060155,12.9946409 C49.9116002,13.0228729 49.9178419,13.050884 49.9245217,13.0788398 C49.9267665,13.0883425 49.9289566,13.0978453 49.9313657,13.1072376 C49.9376074,13.131989 49.9443419,13.1565193 49.9513502,13.1810497 C49.9552376,13.1943646 49.9591798,13.2076243 49.9632862,13.2209392 C49.9696921,13.2416575 49.9764267,13.2622652 49.9834897,13.2828729 C49.9895124,13.3004972 49.9957541,13.3179006 50.0022149,13.3353039 C50.0082924,13.3519337 50.0145341,13.3685635 50.0211043,13.3851381 C50.0295362,13.4065193 50.0385155,13.4275138 50.0476591,13.4486188 C50.0516012,13.4577348 50.0550506,13.4670166 50.059157,13.4761878 L50.0594855,13.4758011 C50.1677851,13.7172928 50.3187913,13.9392818 50.509438,14.1316575 C50.728939,14.3531492 50.9876426,14.521768 51.2699442,14.6323757 L51.2674804,14.6348619 C51.5219132,14.7351381 51.7899246,14.7859116 52.0657655,14.7859116 L57.3385537,14.7859116 C57.451343,14.7859116 57.5624897,14.7776243 57.6719938,14.7612707 C58.1395764,14.6929834 58.5710227,14.4755249 58.909938,14.131768 C58.9334814,14.1081768 58.9559298,14.0838674 58.9778306,14.0594475 C58.9805682,14.0569613 58.9827583,14.0546409 58.9849483,14.0521547 C58.9942562,14.0414917 59.003564,14.030442 59.0128719,14.0195028 L59.0128719,14.0195028 Z" id="Fill-20" fill="#121513"></path>
                    <path d="M105.997262,5.91370166 L105.996715,5.90696133 C105.99562,5.88259669 105.993977,5.86165746 105.991787,5.8421547 C105.987407,5.80259669 105.982479,5.7681768 105.976457,5.73685083 C105.903089,5.35607735 105.673678,5.26436464 105.543368,5.24359116 C105.542273,5.24348066 105.54063,5.24309392 105.538988,5.24292818 C105.536798,5.24259669 105.53406,5.24226519 105.530775,5.24198895 L105.528037,5.26320442 L105.526942,5.26303867 L105.528585,5.24171271 L105.524205,5.24121547 L105.522014,5.24093923 L98.6993595,5.24093923 C98.0702583,5.24093923 97.4805785,5.4861326 97.0392769,5.93149171 C96.5979752,6.37679558 96.354876,6.97171271 96.354876,7.60651934 L96.354876,12.5475138 C96.354876,13.1823757 96.5979752,13.7772928 97.0392769,14.2225414 C97.4805785,14.6679006 98.0702583,14.9131492 98.6993595,14.9131492 L105.517634,14.9131492 L105.511064,14.9050829 C105.729525,14.8759669 105.883926,14.7283425 105.955651,14.4824862 C105.955651,14.5100552 105.955651,14.5159116 105.955651,14.4824309 C105.962221,14.4583425 105.968791,14.4335912 105.974267,14.4076243 C105.980289,14.3781215 105.985217,14.348232 105.989597,14.3133149 C105.991787,14.2955249 105.99343,14.2787845 105.994525,14.2629834 L105.994525,14.2583978 L105.995072,14.2553591 C105.99562,14.2436464 105.996715,14.2317127 105.997262,14.2210497 L105.997262,14.1235912 C105.996715,14.1001657 105.996167,14.079779 105.995072,14.0596133 L105.994525,14.0542541 L105.994525,14.0474586 C105.99343,14.0228177 105.99124,14.0016575 105.989597,13.9820442 C105.985217,13.9424309 105.980289,13.9076796 105.974267,13.8758011 C105.901446,13.4939779 105.674773,13.3999448 105.546105,13.3779006 L105.542273,13.3772928 L98.6993595,13.3772928 C98.2460124,13.3772928 97.8769835,13.0050276 97.8769835,12.5475138 L97.8769835,10.8449171 L105.452479,10.8449171 C105.702149,10.8356906 105.877903,10.6844751 105.955651,10.4175138 C105.955651,10.4451934 105.955651,10.4510497 105.955651,10.4174586 C105.962221,10.3933149 105.968791,10.368674 105.974267,10.3427072 C105.980289,10.3130939 105.985217,10.2832044 105.989597,10.2483425 C105.991787,10.230663 105.99343,10.2138122 105.994525,10.1980663 L105.994525,10.1934807 L105.995072,10.1904972 C105.99562,10.1788398 105.996715,10.1669061 105.997262,10.1562431 L105.997262,10.0586188 C105.996715,10.0353039 105.996167,10.0148619 105.995072,9.99469613 L105.994525,9.98933702 L105.994525,9.98259669 C105.99343,9.9579558 105.99124,9.93674033 105.989597,9.91707182 C105.985217,9.87740331 105.980289,9.84265193 105.974267,9.81088398 C105.900899,9.4259116 105.671488,9.33320442 105.541178,9.3121547 L105.53844,9.31165746 C105.535155,9.31116022 105.532965,9.31088398 105.530775,9.31060773 L105.528037,9.31033149 L105.523657,9.3098895 L105.519277,9.30928177 L105.517087,9.30911602 L97.8769835,9.30911602 L97.8769835,7.60651934 C97.8769835,7.14160221 98.2460124,6.76325967 98.6993595,6.76325967 L105.526942,6.76325967 L105.519824,6.75475138 C105.734452,6.7241989 105.887211,6.57861878 105.957841,6.33718232 C105.957841,6.36430939 105.957841,6.37 105.957841,6.33712707 C105.964411,6.31331492 105.970981,6.28883978 105.976457,6.26320442 C105.982479,6.2341989 105.987407,6.20453039 105.991787,6.16983425 C105.993977,6.15232044 105.99562,6.13574586 105.996715,6.12005525 L105.996715,6.11541436 L105.997262,6.11254144 L105.997262,5.91370166" id="Fill-21" fill="#238297"></path>
                    <path d="M94.896281,5.30464088 C94.8990186,5.29906077 94.9006612,5.29226519 94.9006612,5.28325967 C94.9006612,5.25486188 94.8814979,5.24038674 94.843719,5.24038674 L94.5814566,5.24038674 C94.5694112,5.23994475 94.5579132,5.23983425 94.5486054,5.23983425 C94.5272521,5.23983425 94.5152066,5.24060773 94.5152066,5.24060773 L94.5152066,5.24077348 C94.5146591,5.24082873 94.5141116,5.24082873 94.513564,5.24082873 L94.5108264,5.24093923 L94.5108264,5.24099448 L94.5069938,5.24110497 C94.4834504,5.24149171 94.4604545,5.24243094 94.4380062,5.2438674 C94.4161054,5.24519337 94.3963946,5.24696133 94.3783264,5.24895028 C94.3416426,5.25314917 94.3098864,5.2580663 94.2803202,5.26430939 C93.9266219,5.33900552 93.8412087,5.57044199 93.8220455,5.7018232 L93.8214979,5.70486188 L93.8214979,13.3772928 L93.6725723,13.3772928 L90.3797831,9.61524862 L90.3053202,9.53027624 L90.3053202,9.53093923 L86.9982955,5.75220994 C86.7551963,5.44701657 86.3434607,5.24093923 85.9755269,5.24093923 L85.3935124,5.24093923 C84.8372314,5.24093923 84.3849793,5.72392265 84.3849793,6.31762431 L84.3849793,14.4356906 L84.3926446,14.4293923 C84.4183781,14.6283425 84.533905,14.7740331 84.7255372,14.8526519 C84.7227996,14.858232 84.7206095,14.8648066 84.7206095,14.8735912 C84.7206095,14.901989 84.7397727,14.9165193 84.7775517,14.9165193 L85.0420041,14.9165193 C85.0535021,14.9169061 85.065,14.9170718 85.0748554,14.9170718 C85.0962087,14.9170718 85.1088017,14.9162983 85.1088017,14.9162983 L85.1088017,14.9161878 C85.1088017,14.9160773 85.1093492,14.9160773 85.1098967,14.9160773 C85.1120868,14.9159669 85.1142769,14.9158011 85.1170145,14.9158011 C85.1394628,14.9154144 85.1619112,14.9144751 85.183812,14.9131492 L85.184907,14.9131492 L85.1860021,14.9130387 C85.2084504,14.9116575 85.2276136,14.91 85.2462293,14.9079558 C85.2829132,14.9037569 85.3152169,14.8987845 85.3447831,14.8926519 C85.7028616,14.8176796 85.7877273,14.5842541 85.8057955,14.4518232 C85.806343,14.4499448 85.8068905,14.4471823 85.8068905,14.4445304 L85.807438,14.4422652 L85.807438,6.76325967 L85.9333678,6.76325967 C85.939938,6.76861878 85.9465083,6.77226519 85.9541736,6.77441989 L89.2907645,10.5899448 L89.2907645,10.59 C89.2918595,10.5922652 89.2935021,10.5945304 89.2945971,10.5966851 L89.2967872,10.5996133 L89.2989773,10.6022652 L92.618595,14.4018232 C92.8616942,14.7070718 93.2734298,14.9131492 93.6413636,14.9131492 L94.2354236,14.9131492 C94.7851343,14.9131492 95.2319112,14.4240331 95.2319112,13.8229834 L95.2319112,5.79812155 C95.2258884,5.56337017 95.1081715,5.39232044 94.896281,5.30464088" id="Fill-22" fill="#238297"></path>
                    <path d="M81.6911777,12.5487845 C81.6911777,12.8058564 81.5783884,13.0360773 81.4004442,13.190884 C81.2591839,13.3072928 81.0785021,13.3772928 80.8819421,13.3772928 L75.6093182,13.3772928 C75.1554236,13.3772928 74.7869421,13.0050276 74.7869421,12.5475138 L74.7869421,7.60651934 C74.7869421,7.34944751 74.8997314,7.11917127 75.0776756,6.96436464 C75.218936,6.84801105 75.3996178,6.77801105 75.5956302,6.77801105 L80.8688017,6.77801105 C81.3221488,6.77801105 81.6911777,7.15022099 81.6911777,7.60779006 L81.6911777,12.5487845 Z M83.2094525,7.47828729 C83.2083574,7.46033149 83.2072624,7.44243094 83.2056198,7.42453039 C83.2039773,7.40005525 83.2017872,7.37558011 83.1995971,7.35127072 C83.197407,7.33049724 83.1946694,7.30977901 83.1919318,7.28911602 C83.1891942,7.26756906 83.1859091,7.24607735 83.182624,7.22464088 C83.1793388,7.20370166 83.1755062,7.18281768 83.1716736,7.1620442 C83.1678409,7.13933702 83.1629132,7.11679558 83.1579855,7.09436464 C83.1541529,7.07585635 83.1503202,7.05729282 83.1459401,7.03889503 C83.1366322,7.0021547 83.1273244,6.96558011 83.116374,6.92928177 C83.1152789,6.92569061 83.1147314,6.9220442 83.1136364,6.91845304 C83.1010434,6.87569061 83.0868079,6.83342541 83.0714773,6.79154696 C83.0698347,6.78674033 83.0676446,6.7819337 83.0660021,6.77712707 C83.052314,6.73983425 83.037531,6.70281768 83.0222004,6.66624309 C83.0194628,6.66016575 83.0167252,6.6540884 83.0139876,6.6479558 C82.998657,6.61292818 82.9827789,6.5781768 82.9652583,6.5438674 C82.9636157,6.53983425 82.9619731,6.5358011 82.9597831,6.53176796 L82.9335021,6.47895028 L82.9329545,6.47955801 C82.826188,6.28071823 82.6909504,6.09657459 82.5288843,5.93281768 C82.347655,5.75 82.1412397,5.60160221 81.9178512,5.48939227 L81.9205888,5.48662983 L81.8658368,5.46077348 C81.5559401,5.31491713 81.2252376,5.24093923 80.8819421,5.24093923 L75.6093182,5.24093923 C75.5277376,5.24093923 75.4467045,5.24519337 75.3667665,5.25337017 C74.8301963,5.30585635 74.3330475,5.54248619 73.947593,5.93287293 C73.8731302,6.0079558 73.8052376,6.08762431 73.7422727,6.17071823 C73.7357025,6.17977901 73.7280372,6.18872928 73.7214669,6.1979558 C73.7159917,6.20585635 73.7105165,6.2139779 73.7050413,6.2219337 C73.4192355,6.62138122 73.2648347,7.10116022 73.2648347,7.60651934 L73.2648347,12.5487845 L73.2648347,12.5556906 C73.2653822,12.5963536 73.2664773,12.6367403 73.2686674,12.6770166 C73.2692149,12.6950276 73.2708574,12.7128177 73.2725,12.7307182 C73.2741426,12.7552486 73.2757851,12.7797238 73.2785227,12.8040331 C73.2807128,12.8248066 73.2834504,12.8455249 73.286188,12.8661878 C73.2889256,12.8877348 73.2922107,12.9091713 73.2954959,12.9305525 C73.298781,12.9516022 73.3020661,12.9725414 73.3058988,12.9933702 C73.3102789,13.0159669 73.3152066,13.0383425 73.3201343,13.0608287 C73.3239669,13.079337 73.3277996,13.0979558 73.3321798,13.1164088 C73.3409401,13.1530387 73.3507955,13.1894475 73.3611983,13.2255249 C73.3622934,13.2292818 73.3633884,13.2331492 73.3644835,13.2369061 C73.3770764,13.2796685 73.391312,13.3218232 73.406095,13.3637017 C73.4082851,13.3685635 73.4099277,13.3734807 73.4121178,13.3783978 C73.4258058,13.4156354 73.4400413,13.4524309 73.4559194,13.4889503 C73.458657,13.4951381 73.4613946,13.5012707 73.4641322,13.5075691 C73.4794628,13.5424862 73.4953409,13.5770166 73.512314,13.6112155 C73.5145041,13.6152486 73.5161467,13.6193923 73.5183368,13.6235359 L73.5446178,13.6763536 L73.5451653,13.6758011 C73.6513843,13.8745304 73.7866219,14.0587293 73.9492355,14.2225414 C74.1304649,14.4052486 74.3368802,14.5536464 74.5602686,14.6659116 L74.557531,14.668674 L74.6122831,14.6945304 C74.9216322,14.8403867 75.2528822,14.9144199 75.5956302,14.9144199 L80.8688017,14.9144199 C80.9503822,14.9144199 81.0314153,14.9100552 81.1113533,14.9018785 C81.6479236,14.8494475 82.1450723,14.6128729 82.5305269,14.2224309 C82.6055372,14.1461878 82.6750723,14.0652486 82.7380372,13.9808287 C82.7440599,13.9729834 82.7506302,13.9653591 82.7561054,13.9574033 C82.7632231,13.9482873 82.7692459,13.9388398 82.7758161,13.9296133 C83.0594318,13.530884 83.2132851,13.0525967 83.2132851,12.5487845 L83.2132851,7.60651934 C83.2132851,7.6041989 83.2127376,7.6019337 83.2127376,7.59961326 C83.2127376,7.55900552 83.2116426,7.51850829 83.2094525,7.47828729 L83.2094525,7.47828729 Z" id="Fill-23" fill="#238297"></path>
                </g>
            </g>
        </g>
    </g>
</svg>