<?xml version="1.0" encoding="utf-8"?>
<!-- Generator: Adobe Illustrator 20.1.0, SVG Export Plug-In . SVG Version: 6.00 Build 0)  -->
<svg version="1.1" id="Ebene_1" xmlns="http://www.w3.org/2000/svg" xmlns:xlink="http://www.w3.org/1999/xlink" x="0px" y="0px"
	 viewBox="0 0 101 32" style="enable-background:new 0 0 101 32;" xml:space="preserve">
<style type="text/css">
	.st0{fill:#FFFFFF;}
</style>
<g id="Page-1">
	<g id="logo">
		<path id="Fill-1" class="st0" d="M22,6.7h2.3c0.6,0,1.1,0.5,1.1,1.1v2.3c0,0.6-0.5,1.1-1.1,1.1H22c-0.6,0-1.1-0.5-1.1-1.1V7.8
			C20.8,7.2,21.4,6.7,22,6.7"/>
		<path id="Fill-2" class="st0" d="M22,22h2.3c0.6,0,1.1,0.5,1.1,1.1v2.3c0,0.6-0.5,1.1-1.1,1.1H22c-0.6,0-1.1-0.5-1.1-1.1v-2.3
			C20.8,22.5,21.4,22,22,22"/>
		<path id="Fill-3" class="st0" d="M11,0.1h2.3c0.6,0,1.1,0.5,1.1,1.1v2.3c0,0.6-0.5,1.1-1.1,1.1H11c-0.6,0-1.1-0.5-1.1-1.1V1.2
			C9.9,0.6,10.4,0.1,11,0.1z M16.5,8.9h2.3c0.6,0,1.1,0.5,1.1,1.1v2.3c0,0.6-0.5,1.1-1.1,1.1h-2.3c-0.6,0-1.1-0.5-1.1-1.1V10
			C15.4,9.4,15.9,8.9,16.5,8.9z M5.6,27.4h2.3c0.6,0,1.1,0.5,1.1,1.1v2.3C9,31.5,8.5,32,7.9,32H5.6c-0.6,0-1.1-0.5-1.1-1.1v-2.3
			C4.4,27.9,4.9,27.4,5.6,27.4z M3.4,16.5h2.3c0.6,0,1.1,0.5,1.1,1.1V20c0,0.6-0.5,1.1-1.1,1.1H3.4c-0.6,0-1.1-0.5-1.1-1.1v-2.3
			C2.2,17,2.8,16.5,3.4,16.5z M24.2,16.5h2.3c0.6,0,1.1,0.5,1.1,1.1V20c0,0.6-0.5,1.1-1.1,1.1h-2.3c-0.6,0-1.1-0.5-1.1-1.1v-2.3
			C23,17,23.6,16.5,24.2,16.5z M16.5,22h2.3c0.6,0,1.1,0.5,1.1,1.1v2.3c0,0.6-0.5,1.1-1.1,1.1h-2.3c-0.6,0-1.1-0.5-1.1-1.1v-2.3
			C15.4,22.5,15.9,22,16.5,22z M22,27.4h2.3c0.6,0,1.1,0.5,1.1,1.1v2.3c0,0.6-0.5,1.1-1.1,1.1H22c-0.6,0-1.1-0.5-1.1-1.1v-2.3
			C20.8,27.9,21.4,27.4,22,27.4L22,27.4z"/>
		<path id="Fill-4" class="st0" d="M1.2,6.7h2.3c0.6,0,1.1,0.5,1.1,1.1v2.3c0,0.6-0.5,1.1-1.1,1.1H1.2c-0.6,0-1.1-0.5-1.1-1.1V7.8
			C0.1,7.2,0.6,6.7,1.2,6.7"/>
		<path id="Fill-5" class="st0" d="M16.5,16.5h2.3c0.6,0,1.1,0.5,1.1,1.1V20c0,0.6-0.5,1.1-1.1,1.1h-2.3c-0.6,0-1.1-0.5-1.1-1.1
			v-2.3C15.4,17,15.9,16.5,16.5,16.5"/>
		<path id="Fill-6" class="st0" d="M11,14.3h2.3c0.6,0,1.1,0.5,1.1,1.1v2.3c0,0.6-0.5,1.1-1.1,1.1H11c-0.6,0-1.1-0.5-1.1-1.1v-2.3
			C9.9,14.8,10.4,14.3,11,14.3"/>
		<path id="Fill-7" class="st0" d="M11,22h2.3c0.6,0,1.1,0.5,1.1,1.1v2.3c0,0.6-0.5,1.1-1.1,1.1H11c-0.6,0-1.1-0.5-1.1-1.1v-2.3
			C9.9,22.5,10.4,22,11,22"/>
		<path id="Fill-8" class="st0" d="M5.6,22h2.3C8.5,22,9,22.5,9,23.1v2.3c0,0.6-0.5,1.1-1.1,1.1H5.6c-0.6,0-1.1-0.5-1.1-1.1v-2.3
			C4.4,22.5,4.9,22,5.6,22"/>
		<path id="Fill-9" class="st0" d="M16.5,27.4h2.3c0.6,0,1.1,0.5,1.1,1.1v2.3c0,0.6-0.5,1.1-1.1,1.1h-2.3c-0.6,0-1.1-0.5-1.1-1.1
			v-2.3C15.4,27.9,15.9,27.4,16.5,27.4"/>
		<path id="Fill-10" class="st0" d="M11,27.4h2.3c0.6,0,1.1,0.5,1.1,1.1v2.3c0,0.6-0.5,1.1-1.1,1.1H11c-0.6,0-1.1-0.5-1.1-1.1v-2.3
			C9.9,27.9,10.4,27.4,11,27.4"/>
		<path id="Fill-11" class="st0" d="M44.4,11.9v2.5h-4.4v13.1h-2.9V14.4h-4.4v-2.5H44.4z M56.2,11.9v2.5h-7.3v3.9h7v2.6h-7v4.1h7.5
			v2.5H46V11.9H56.2z M59.4,27.4h2.9V11.9h-2.9V27.4z M72.5,11.9l-6.8,7.3l7.7,8.3h-4l-6.3-7.3v-1.9l5.9-6.4H72.5z M75.1,27.4H78
			V11.9h-2.9V27.4z M88.3,11.9l-6.8,7.3l7.7,8.3h-4l-6.3-7.3v-1.9l5.9-6.4H88.3z M93.7,11.9v13.1h7.2v2.5H90.9V11.9H93.7L93.7,11.9z
			"/>
	</g>
</g>
</svg>
